<svg width="1440" height="1038" viewBox="0 0 1440 1038" fill="none" xmlns="http://www.w3.org/2000/svg">
<mask id="mask0_212_49" style="mask-type:luminance" maskUnits="userSpaceOnUse" x="0" y="101" width="1440" height="749">
<path d="M1440 101H0V849.998H1440V101Z" fill="white"/>
</mask>
<g mask="url(#mask0_212_49)">
<path style="mix-blend-mode:multiply" d="M253.189 904.57C188.336 893.574 122.629 881.907 59.0835 870.628C11.3178 862.147 -37.4622 853.49 -86.0981 845.076V846.9C-37.5897 855.291 11.0628 863.927 58.7011 872.385C122.246 883.669 187.959 895.331 252.818 906.333C590.199 963.521 857.145 987.138 1092.93 980.664C1215.38 977.272 1344.85 966.081 1478.34 947.392V945.574C1344.85 964.269 1215.33 975.482 1092.87 978.868C857.234 985.342 590.421 961.736 253.189 904.57Z" fill="url(#paint0_linear_212_49)" fill-opacity="0.2"/>
<path style="mix-blend-mode:multiply" d="M1395.62 44.4488C1387.73 26.563 1380.27 9.6693 1372.8 -6.17686C1350.06 -54.3527 1330.09 -91.111 1315.07 -112.483C1302.89 -129.798 1294.71 -137.236 1294.36 -137.546L1293.8 -138.056L1293.13 -137.668C1292.86 -137.508 1265.19 -121.462 1218.85 -94.043C1212.81 -90.4736 1206.49 -86.7102 1199.89 -82.775C1155.89 -56.5809 1101.13 -23.9795 1036.09 8.24486C950.709 50.5235 873.074 76.0746 798.455 86.3394C724.329 96.5267 638.508 92.863 528.377 74.8109C507.365 71.3635 486.165 67.6721 465.658 64.1027C392.296 51.3327 323.003 39.2665 256.338 36.5174C180.848 33.4302 106.578 44.2936 47.2003 67.1012C-16.334 91.555 -60.5192 120.681 -86.1036 140.49V142.851C-60.8906 123.153 -16.4781 93.5559 47.9763 68.7529C107.082 46.0451 181.048 35.2316 256.243 38.3077C322.765 41.0512 391.986 53.1008 465.281 65.8597C485.788 69.4291 507 73.126 528.017 76.5735C638.375 94.6588 724.401 98.328 798.749 88.1131C873.612 77.8095 951.446 52.1973 1037.04 9.81894C1102.16 -22.4387 1156.95 -55.0622 1200.97 -81.2729C1207.57 -85.2026 1213.89 -88.966 1219.93 -92.5354C1262.24 -117.566 1288.97 -133.118 1293.51 -135.756C1295.55 -133.789 1303.11 -126.14 1313.39 -111.519C1328.36 -90.2297 1348.27 -53.5602 1370.97 -5.47296C1378.44 10.3566 1385.88 27.2392 1393.77 45.1139C1416.97 97.7183 1442.99 156.674 1478.34 207.156V203.747C1443.94 153.942 1418.4 96.1221 1395.61 44.4488H1395.62Z" fill="url(#paint1_linear_212_49)" fill-opacity="0.2"/>
<path style="mix-blend-mode:multiply" d="M39.5294 70.316C39.3021 70.6596 33.9591 78.9346 27.7736 96.4436C20.2524 117.755 12.7422 152.567 6.05236 197.119C4.07921 210.254 2.31113 224.05 0.437749 238.66C-10.2372 321.915 -23.2179 422.651 -86.0981 480.526V483.092C-21.5108 425.006 -8.39154 323.034 2.40536 238.859C4.27874 224.26 6.04682 210.471 8.01443 197.351C14.6932 152.906 22.1757 118.198 29.6636 96.9812C35.766 79.694 41.1811 71.3025 41.2365 71.2249L39.5294 70.3104V70.316Z" fill="url(#paint2_linear_212_49)" fill-opacity="0.2"/>
<path style="mix-blend-mode:multiply" d="M99.2893 50.9391C99.0842 51.2828 94.2455 59.5246 88.8028 76.9282C82.1628 98.2005 75.7168 133.091 70.1742 177.83C68.8052 188.877 67.5415 200.272 66.2002 212.338C61.5278 254.451 56.2292 302.189 44.49 350.182C28.0785 417.202 -1.37461 462.923 -43.0435 486.085C-55.3092 492.891 -69.7476 498.473 -86.1036 502.879V504.736C-69.3485 500.268 -54.561 494.576 -42.0071 487.615C0.144054 464.192 29.8965 418.083 46.4299 350.57C58.1912 302.471 63.4954 254.683 68.1734 212.516C69.5091 200.455 70.7784 189.065 72.1418 178.03C77.6733 133.385 84.0971 98.594 90.7094 77.4104C96.0801 60.2229 100.98 51.8648 101.03 51.7816L99.2837 50.9336L99.2893 50.9391Z" fill="url(#paint3_linear_212_49)" fill-opacity="0.2"/>
<path style="mix-blend-mode:multiply" d="M163.694 39.6545C163.516 39.9981 159.265 48.251 154.654 65.6103C149.006 86.9048 143.774 121.917 139.523 166.862C138.475 177.98 137.522 189.442 136.519 201.575C133.016 243.887 129.042 291.846 119.204 340.166C105.27 408.511 80.0233 453.002 42.0346 476.192C21.2722 488.84 -6.3685 497.176 -40.1448 500.978C-54.7661 502.619 -70.2409 503.461 -86.0981 503.86V505.65C-70.1633 505.246 -54.6109 504.403 -39.901 502.752C-5.81979 498.916 22.1202 490.48 43.1431 477.666C81.5974 454.193 107.11 409.315 121.155 340.477C131.009 292.057 134.989 244.053 138.497 201.697C139.5 189.569 140.448 178.107 141.501 167C145.741 122.144 150.962 87.2207 156.588 66.0093C161.139 48.8551 165.451 40.4859 165.489 40.3972L163.694 39.6323V39.6545Z" fill="url(#paint4_linear_212_49)" fill-opacity="0.2"/>
<path style="mix-blend-mode:multiply" d="M232.161 36.5009C232.006 36.8445 228.42 45.1528 224.717 62.5287C220.167 83.9063 216.259 119.085 213.427 164.262C212.723 175.458 212.119 187.003 211.482 199.219C209.254 241.736 206.732 289.929 199.016 338.603C192.044 382.5 177.666 444.455 133.526 475.516C115.662 488.058 90.7094 496.682 61.2673 500.418C29.4309 504.47 -7.00587 503.766 -42.2399 503.084L-44.4015 503.045C-58.1415 502.779 -72.0477 502.524 -86.087 502.391V504.182C-72.0588 504.315 -58.1636 504.57 -44.4403 504.836L-42.2787 504.88C-6.96707 505.562 29.5528 506.266 61.55 502.197C91.2802 498.39 116.615 489.671 134.75 476.934C179.462 445.475 193.967 383.066 200.99 338.864C208.721 290.1 211.243 241.869 213.471 199.308C214.109 187.092 214.718 175.552 215.417 164.362C218.249 119.262 222.14 84.1668 226.674 62.8668C230.337 45.6793 233.979 37.2436 234.012 37.1604L232.172 36.5009H232.161Z" fill="url(#paint5_linear_212_49)" fill-opacity="0.2"/>
<path style="mix-blend-mode:multiply" d="M303.787 40.5468C303.76 40.6299 300.789 49.2874 298.051 66.7409C294.67 88.2571 292.187 123.646 290.857 169.079C290.524 180.352 290.286 192.114 290.042 204.274C289.172 247.024 288.185 295.471 282.753 344.539C278.973 378.598 273.614 404.665 265.876 426.564C257.224 451.034 245.125 470.034 229.916 483.037C198.213 510.09 138.996 513.321 79.7241 512.778L77.9782 512.761C42.7054 512.44 6.22426 512.102 -31.1547 515.494C-50.0659 517.212 -68.3841 519.906 -86.0925 523.447V525.282C-68.3286 521.713 -49.9495 519.002 -30.9607 517.279C6.31294 513.898 42.7331 514.236 77.9504 514.557L79.7019 514.574C139.39 515.117 199.066 511.83 231.28 484.339C246.732 471.126 259.009 451.871 267.766 427.107C275.548 405.081 280.935 378.903 284.727 344.717C290.169 295.576 291.156 247.085 292.026 204.302C292.275 192.147 292.514 180.391 292.841 169.117C294.165 123.752 296.649 88.4345 300.013 66.9848C302.729 49.6976 305.65 41.1565 305.677 41.0734L303.787 40.5413V40.5468Z" fill="url(#paint6_linear_212_49)" fill-opacity="0.2"/>
<path style="mix-blend-mode:multiply" d="M379.443 50.4403L377.509 50.0413C377.487 50.1299 375.297 58.9038 373.551 76.4848C371.395 98.1839 370.381 133.817 370.614 179.521C370.675 190.866 370.819 202.711 370.969 214.949C371.501 257.948 372.105 306.689 369.062 356.162C366.939 390.515 363.276 416.87 357.528 439.095C351.01 464.281 341.837 483.153 329.494 496.799C303.954 524.972 250.34 529.506 206.488 530.309L205.141 530.331C175.898 530.869 145.658 531.418 114.847 535.741C114.382 535.807 113.91 535.874 113.439 535.94C78.8206 540.945 45.3324 550.916 16.5001 564.8C-15.4694 580.209 -45.8869 601.869 -73.9156 629.183C-78.0337 633.196 -82.0798 637.369 -86.0981 641.615V644.392C-81.6031 639.597 -77.0749 634.903 -72.4579 630.402C-44.5844 603.238 -14.3387 581.694 17.4368 566.38C46.4631 552.402 80.1674 542.442 115.158 537.515C145.836 533.208 176.009 532.659 205.185 532.122L206.527 532.099C250.812 531.285 304.973 526.668 331.029 497.935C343.572 484.073 352.872 464.962 359.462 439.506C365.238 417.175 368.912 390.725 371.041 356.262C374.089 306.723 373.485 257.954 372.947 214.927C372.798 202.689 372.648 190.855 372.593 179.51C372.36 133.856 373.369 98.2892 375.519 76.64C377.254 59.1976 379.415 50.5235 379.438 50.4403H379.443Z" fill="url(#paint7_linear_212_49)" fill-opacity="0.2"/>
<path style="mix-blend-mode:multiply" d="M25.0523 865.534L23.129 865.113C23.251 864.658 35.6995 818.76 66.4496 752.665C82.9221 717.282 100.054 687.69 118.821 662.2C139.844 633.656 162.957 610.715 187.516 594.004C209.974 578.74 236.34 567.361 263.765 561.093C287.825 555.6 311.746 553.92 334.887 552.291L335.53 552.247C384.415 548.799 416.401 535.968 430.612 514.081C439.946 499.687 446.281 480.886 450.549 454.919C454.262 432.328 456.191 405.657 456.618 370.988C457.233 321.078 455.01 272.021 453.048 228.739C452.489 216.44 451.951 204.54 451.502 193.133C449.678 147.152 449.196 111.264 450.111 89.3491C450.853 71.6074 452.256 62.7116 452.267 62.6229L454.229 62.8779C454.212 62.9666 452.827 71.7848 452.089 89.4156C451.18 111.287 451.663 147.13 453.481 193.067C453.93 204.468 454.473 216.362 455.027 228.661C456.989 271.965 459.212 321.05 458.596 371.005C458.164 405.757 456.23 432.5 452.5 455.174C448.193 481.374 441.775 500.374 432.308 514.978C417.742 537.398 385.224 550.534 335.668 554.02L335.02 554.065C311.968 555.683 288.13 557.362 264.23 562.816C237.061 569.029 210.938 580.303 188.685 595.429C164.303 612.012 141.346 634.809 120.451 663.181C101.756 688.577 84.6791 718.074 68.2565 753.353C37.5674 819.304 25.1521 865.074 25.0301 865.528L25.0523 865.534Z" fill="url(#paint8_linear_212_49)" fill-opacity="0.2"/>
<path style="mix-blend-mode:multiply" d="M253.987 905.568L252.02 905.335C252.086 904.875 258.959 858.29 278.375 789.872C288.872 752.909 299.647 723.123 312.295 696.148C326.467 665.941 341.776 642.368 359.097 624.089C374.743 607.594 393.41 594.836 413.087 587.181C430.34 580.48 448.697 577.465 464.898 574.805C480.041 572.322 494.562 569.567 505.841 563.287C517.109 557.002 526.155 546.139 531.996 531.878C538.121 516.896 541.873 497.614 543.797 471.203C545.487 447.93 545.67 421.73 544.39 386.264C542.572 335.971 538.725 286.609 535.333 243.055C534.369 230.662 533.432 218.679 532.584 207.189C529.17 160.942 527.191 124.794 526.853 102.651C526.587 84.7376 527.197 75.7199 527.202 75.6312L529.181 75.7476C529.175 75.8363 528.566 84.7931 528.837 102.629C529.17 124.744 531.154 160.859 534.563 207.073C535.411 218.557 536.342 230.54 537.306 242.928C540.698 286.498 544.545 335.876 546.368 386.203C547.654 421.73 547.471 447.98 545.775 471.32C543.841 497.913 540.05 517.351 533.853 532.498C527.856 547.142 518.528 558.316 506.878 564.812C495.305 571.257 480.584 574.051 465.247 576.567C449.152 579.211 430.911 582.204 413.862 588.822C394.458 596.365 376.04 608.964 360.593 625.248C343.406 643.383 328.202 666.806 314.113 696.841C301.504 723.733 290.757 753.436 280.287 790.31C260.899 858.617 254.043 905.102 253.976 905.562L253.987 905.568Z" fill="url(#paint9_linear_212_49)" fill-opacity="0.2"/>
<path style="mix-blend-mode:multiply" d="M481.465 941.057L479.481 940.979C479.486 940.857 480.079 928.531 481.537 906.71C482.962 885.437 485.095 856.655 488.981 822.579C493.321 784.568 498.281 753.813 504.594 725.795C511.661 694.435 519.853 669.727 529.641 650.267C538.62 632.431 549.323 618.824 561.45 609.823C571.969 602.03 584.385 597.574 593.452 594.32C602.636 591.022 612.014 587.065 618.338 580.48C625.134 573.403 630.017 562.212 632.86 547.22C635.836 531.484 636.978 512.34 636.546 485.149C636.18 461.837 634.634 434.539 631.679 399.256C627.428 348.525 621.952 298.786 617.125 254.9C615.756 242.49 614.436 230.485 613.2 218.978C608.201 172.476 604.726 136.073 603.146 113.714C601.871 95.6344 601.705 86.5224 601.7 86.4337L603.684 86.406C603.684 86.4947 603.856 95.5679 605.125 113.603C606.705 135.94 610.174 172.321 615.168 218.807C616.404 230.313 617.729 242.313 619.092 254.722C623.92 298.619 629.396 348.369 633.647 399.117C636.607 434.445 638.153 461.776 638.524 485.126C638.951 512.434 637.809 531.684 634.811 547.524C631.862 563.06 626.963 574.223 619.829 581.655C613.223 588.534 603.595 592.613 594.173 595.989C585.227 599.198 572.978 603.593 562.697 611.208C550.802 620.032 540.283 633.423 531.437 651.009C521.71 670.347 513.562 694.929 506.523 726.155C500.227 754.112 495.277 784.812 490.943 822.762C487.058 856.805 484.924 885.565 483.505 906.815C482.041 928.619 481.454 940.935 481.448 941.057H481.465Z" fill="url(#paint10_linear_212_49)" fill-opacity="0.2"/>
<path style="mix-blend-mode:multiply" d="M707.906 967.173L705.927 967.295C705.927 967.295 704.996 954.819 703.489 932.222C702.042 910.44 700.163 880.953 698.528 846.019C696.705 807.071 695.845 775.456 695.823 746.53C695.801 713.779 696.871 688.915 699.177 668.274C701.294 649.391 704.431 635.357 708.76 625.369C712.035 617.832 716.53 612.389 720.898 607.639C723.824 604.452 727.965 599.38 730.043 592.203C732.349 584.244 733.258 573.519 733.008 557.418C732.753 541.261 731.39 521.768 728.585 494.222C726.185 470.632 722.904 443.069 718.254 407.481C711.57 356.323 704.459 306.19 698.184 261.955C696.422 249.54 694.72 237.535 693.102 226.023C686.506 179.138 681.535 142.513 678.736 120.099C676.458 101.881 675.515 92.7134 675.504 92.6192L677.477 92.4529C677.483 92.5416 678.425 101.698 680.703 119.894C683.502 142.303 688.468 178.917 695.07 225.79C696.688 237.302 698.389 249.307 700.152 261.722C706.426 305.963 713.543 356.101 720.227 407.27C724.877 442.875 728.164 470.455 730.564 494.055C733.374 521.657 734.738 541.189 734.998 557.396C735.253 573.663 734.322 584.537 731.972 592.657C729.788 600.184 725.482 605.472 722.433 608.786C718.171 613.425 713.792 618.724 710.616 626.029C706.349 635.861 703.256 649.74 701.161 668.457C698.855 689.031 697.796 713.84 697.819 746.53C697.841 775.429 698.7 807.016 700.518 845.941C702.153 880.865 704.026 910.34 705.473 932.117C706.975 954.708 707.906 967.173 707.906 967.179V967.173Z" fill="url(#paint11_linear_212_49)" fill-opacity="0.2"/>
<path style="mix-blend-mode:multiply" d="M934.491 980.326C934.491 980.326 931.986 967.55 927.391 944.427C922.924 921.952 916.86 891.612 909.594 856.234C901.402 816.338 894.563 784.014 888.056 754.511C880.684 721.062 874.72 695.638 869.283 674.51C864.267 655 860.182 641.072 856.435 630.674C853.681 623.036 850.971 617.416 848.454 612.483C846.692 609.03 844.07 603.56 841.676 595.944C839.076 587.68 836.344 576.673 832.807 560.245C829.277 543.855 825.386 524.135 820.182 496.317C815.687 472.295 810.798 445.325 804.33 408.883C795.251 357.731 786.527 307.526 778.834 263.236L772.405 226.261C764.224 179.272 757.75 142.447 753.682 119.761C750.362 101.243 748.666 92.1703 748.666 92.1703L750.623 91.871C750.623 91.871 752.319 100.944 755.644 119.473C759.712 142.159 766.186 178.989 774.367 225.979L780.796 262.953C788.489 307.244 797.213 357.442 806.292 408.595C812.76 445.037 817.649 471.996 822.138 496.012C827.337 523.819 831.228 543.523 834.753 559.895C838.278 576.268 840.999 587.231 843.582 595.445C845.938 602.933 848.521 608.321 850.256 611.718C852.8 616.701 855.538 622.377 858.325 630.103C862.089 640.551 866.185 654.529 871.217 674.089C876.655 695.239 882.624 720.679 890.007 754.145C896.514 783.659 903.359 815.989 911.551 855.89C918.817 891.274 924.875 921.614 929.348 944.094C933.943 967.218 936.448 979.993 936.448 979.993L934.497 980.309L934.491 980.326Z" fill="url(#paint12_linear_212_49)" fill-opacity="0.2"/>
<path style="mix-blend-mode:multiply" d="M1170.75 976.856C1170.7 976.723 1166.43 963.488 1158.56 940.104C1150.88 917.313 1140.35 886.479 1126.84 850.02C1111.81 809.466 1098.54 776.62 1085.05 746.646C1070.06 713.308 1056.24 686.964 1042.8 666.096C1030.62 647.191 1018.43 632.63 1006.58 622.814C997.178 615.038 987.273 610.011 977.934 605.527C970.185 601.808 961.323 597.014 954.311 589.648C946.79 581.739 939.851 570.099 933.1 554.065C926.299 537.914 919.598 517.528 912.022 489.91C905.465 466.016 898.62 438.076 890.489 401.971C878.833 350.215 868.346 299.395 859.096 254.556C856.502 241.997 854.002 229.858 851.58 218.225C841.737 170.941 833.716 133.956 828.39 111.27C824.078 92.9241 821.578 83.7622 821.556 83.6735L823.479 83.2412C823.507 83.3299 826.012 92.5194 830.33 110.899C835.662 133.595 843.688 170.597 853.531 217.898C855.953 229.531 858.458 241.675 861.047 254.235C870.297 299.068 880.778 349.882 892.434 401.617C900.565 437.693 907.399 465.611 913.951 489.483C921.511 517.029 928.184 537.348 934.957 553.433C941.63 569.273 948.453 580.735 955.819 588.489C962.614 595.628 971.283 600.312 978.865 603.953C988.315 608.492 998.347 613.581 1007.92 621.501C1019.92 631.439 1032.23 646.143 1044.52 665.204C1058 686.138 1071.86 712.56 1086.89 745.981C1100.39 775.989 1113.67 808.872 1128.71 849.461C1142.23 885.936 1152.77 916.786 1160.45 939.588C1168.33 962.983 1172.6 976.23 1172.64 976.357L1170.74 976.862L1170.75 976.856Z" fill="url(#paint13_linear_212_49)" fill-opacity="0.2"/>
<path style="mix-blend-mode:multiply" d="M1358.59 823.948C1336.05 783.349 1314.85 749.196 1293.79 719.526C1270.08 686.138 1247.62 660.005 1225.14 639.636C1204.74 621.168 1183.72 607.295 1162.67 598.41C1144.57 590.773 1126.05 586.91 1111.17 583.806C1097.23 580.896 1082.6 577.476 1070.43 570.581C1058.1 563.581 1046.79 552.258 1036.84 536.938C1026.61 521.181 1017.14 501.017 1007.02 473.487C998.269 449.654 989.54 421.664 979.547 385.41C965.258 333.526 952.987 282.429 942.162 237.346C939.114 224.648 936.165 212.377 933.305 200.627C921.716 153.055 912.077 115.937 905.426 93.2787C900.033 74.9052 896.708 65.7877 896.674 65.699L894.795 66.2643C894.829 66.353 898.138 75.4317 903.514 93.7388C910.159 116.375 919.787 153.471 931.376 201.015C934.236 212.765 937.185 225.036 940.233 237.729C951.063 282.823 963.34 333.931 977.634 385.842C987.639 422.146 996.379 450.175 1005.15 474.052C1015.31 501.704 1024.84 521.973 1035.14 537.847C1045.26 553.422 1056.78 564.945 1069.39 572.1C1081.82 579.145 1096.63 582.609 1110.73 585.557C1125.52 588.644 1143.93 592.48 1161.84 600.04C1182.68 608.842 1203.51 622.587 1223.75 640.911C1246.13 661.185 1268.5 687.224 1292.14 720.502C1313.16 750.11 1334.33 784.214 1356.83 824.757C1377.37 861.765 1393.1 893.258 1404.52 916.564C1416.22 940.469 1422.52 954.06 1422.59 954.193L1424.41 953.5C1424.35 953.367 1418.05 939.76 1406.33 915.833C1394.91 892.509 1379.15 860.989 1358.6 823.948H1358.59Z" fill="url(#paint14_linear_212_49)" fill-opacity="0.2"/>
<path style="mix-blend-mode:multiply" d="M1478.34 638.134C1458.03 621.512 1437.86 607.367 1418.05 595.916C1388.78 579.017 1357.01 566.474 1326.16 559.646C1299.4 553.732 1272.94 551.903 1249.59 550.296C1198.85 546.787 1163.62 533.624 1141.88 510.046C1127.92 494.887 1115.43 475.083 1102.56 447.72C1091.43 424.036 1080.67 396.063 1068.69 359.687C1051.56 307.654 1037.35 256.224 1024.81 210.847C1021.29 198.077 1017.88 185.74 1014.55 173.934C1001.11 126.152 989.745 88.9666 981.686 66.3918C975.157 48.1014 970.956 39.1169 970.917 39.0282L969.093 39.7266C969.132 39.8152 973.3 48.7332 979.802 66.935C987.849 89.4765 999.201 126.628 1012.63 174.366C1015.95 186.172 1019.36 198.51 1022.88 211.274C1035.42 256.668 1049.63 308.125 1066.78 360.197C1078.78 396.639 1089.57 424.668 1100.73 448.418C1113.67 475.948 1126.26 495.895 1140.34 511.193C1162.45 535.159 1198.12 548.533 1249.42 552.08C1272.7 553.688 1299.07 555.511 1325.67 561.386C1356.31 568.165 1387.88 580.63 1416.97 597.424C1437.12 609.069 1457.65 623.496 1478.33 640.528V638.134H1478.34Z" fill="url(#paint15_linear_212_49)" fill-opacity="0.2"/>
<path style="mix-blend-mode:multiply" d="M1478.34 503.3C1450.3 502.02 1423.38 502.718 1397.17 503.422H1396.91C1348.86 504.719 1288.94 502.441 1251.68 473.11C1233.87 459.065 1217.59 439.273 1201.91 412.596C1188.19 389.223 1175.2 361.361 1161.03 324.913C1140.8 272.841 1124.49 221.107 1110.1 175.458C1106.05 162.605 1102.14 150.184 1098.31 138.312C1082.85 90.3634 1069.62 53.1784 1060.04 30.7698C1052.28 12.629 1047.15 3.86627 1047.1 3.77759L1045.35 4.62006C1045.4 4.70874 1050.49 13.3939 1058.19 31.4183C1067.75 53.7825 1080.96 90.9176 1096.4 138.816C1100.22 150.683 1104.14 163.098 1108.19 175.951C1122.58 221.622 1138.91 273.384 1159.16 325.506C1173.36 362.043 1186.39 389.983 1200.16 413.439C1215.95 440.309 1232.38 460.268 1250.38 474.462C1288.16 504.204 1348.56 506.52 1396.97 505.224H1397.23C1423.43 504.514 1450.34 503.816 1478.35 505.096V503.3H1478.34Z" fill="url(#paint16_linear_212_49)" fill-opacity="0.2"/>
<path style="mix-blend-mode:multiply" d="M1478.34 449.865C1468.07 450.097 1457.97 450.031 1448.35 449.432C1417.62 447.526 1389.75 439.855 1367.76 427.245C1345.72 414.586 1325.04 395.076 1306.31 369.248C1289.71 346.335 1274.25 318.683 1257.66 282.23C1234 230.208 1215.37 178.163 1198.93 132.254C1194.3 119.345 1189.84 106.875 1185.46 94.9692C1167.81 46.8931 1152.53 9.78018 1141.3 -12.3623C1132.2 -30.2814 1126.05 -38.756 1125.99 -38.8391L1124.34 -37.8525C1124.4 -37.7694 1130.47 -29.3891 1139.49 -11.6141C1150.7 10.4674 1165.94 47.5194 1183.58 95.5401C1187.96 107.446 1192.42 119.905 1197.04 132.814C1213.49 178.756 1232.14 230.828 1255.83 282.923C1272.47 319.481 1287.98 347.228 1304.66 370.24C1323.54 396.285 1344.41 415.977 1366.7 428.77C1388.97 441.54 1417.15 449.305 1448.21 451.234C1457.89 451.832 1468.03 451.899 1478.34 451.666V449.876V449.865Z" fill="url(#paint17_linear_212_49)" fill-opacity="0.2"/>
<path style="mix-blend-mode:multiply" d="M1478.34 368.378C1456.2 357.054 1435.53 340.754 1416.77 319.642C1396.96 297.333 1378.75 269.998 1359.47 233.611C1332.03 181.771 1310.83 129.472 1292.12 83.3243C1286.81 70.2217 1281.79 57.8452 1276.81 45.9066C1256.72 -2.25824 1239.2 -39.2271 1226.16 -61.0038C1215.6 -78.6402 1208.34 -86.7489 1208.28 -86.8265L1206.74 -85.6959C1206.81 -85.6183 1213.96 -77.6204 1224.42 -60.1502C1237.42 -38.44 1254.9 -1.5488 1274.95 46.5384C1279.93 58.4715 1284.95 70.8425 1290.26 83.9396C1308.97 130.126 1330.19 182.47 1357.68 234.381C1377.03 270.901 1395.31 298.348 1415.22 320.767C1434.42 342.367 1455.61 359 1478.34 370.456V368.383V368.378Z" fill="url(#paint18_linear_212_49)" fill-opacity="0.2"/>
<path style="mix-blend-mode:multiply" d="M1318.43 -105.838C1318.14 -105.677 1289.38 -89.3373 1241.21 -61.425C1234.95 -57.7947 1228.38 -53.9703 1221.53 -49.9741C1175.86 -23.3477 1119.03 9.78569 1051.68 42.448C963.385 85.2531 883.134 111.054 806.275 121.302C729.904 131.461 641.54 127.526 528.178 108.92C506.545 105.367 484.713 101.565 463.596 97.8901C388.106 84.7432 316.807 72.3279 248.229 69.3737C170.594 66.0593 94.312 76.906 33.4104 99.9187C-19.3547 119.894 -59.0338 143.045 -86.0981 161.757V164.013C-59.1392 145.246 -19.2106 121.784 34.1753 101.576C94.7998 78.663 170.788 67.8606 248.129 71.1639C316.568 74.1126 387.796 86.5168 463.213 99.6527C484.33 103.333 506.168 107.135 527.812 110.688C641.39 129.328 729.965 133.268 806.558 123.081C808.758 122.787 810.953 122.482 813.165 122.161C888.222 111.309 966.638 85.7187 1052.61 44.0331C1120.03 11.3321 1176.9 -21.8235 1222.6 -48.4665C1229.45 -52.4572 1236.01 -56.2871 1242.27 -59.9119C1290.44 -87.8131 1319.19 -104.153 1319.48 -104.313L1318.42 -105.832L1318.43 -105.838Z" fill="url(#paint19_linear_212_49)" fill-opacity="0.2"/>
<path style="mix-blend-mode:multiply" d="M1344.78 -60.4829C1344.49 -60.3221 1314.66 -43.833 1264.72 -15.6935C1258.25 -12.0465 1251.46 -8.19995 1244.39 -4.1816C1197.09 22.6388 1138.23 56.0161 1068.67 88.8225C977.579 131.761 894.878 157.561 815.842 167.621C737.348 177.603 646.589 173.346 530.217 154.214C508.008 150.561 485.594 146.653 463.917 142.873C386.438 129.372 313.254 116.613 242.88 113.415C163.25 109.818 85.0615 120.509 22.7244 143.5C-23.1015 160.438 -59.2944 179.754 -86.0981 196.692V198.881C-59.2944 181.838 -22.8742 162.283 23.4726 145.157C85.5437 122.261 163.433 111.625 242.78 115.205C313.016 118.398 386.133 131.14 463.54 144.63C485.223 148.41 507.642 152.318 529.863 155.97C646.45 175.137 737.409 179.404 816.119 169.389C819.622 168.94 823.13 168.463 826.644 167.953C902.721 156.952 982.323 131.533 1069.58 90.4021C1139.22 57.5625 1198.11 24.163 1245.44 -2.67402C1252.52 -6.68683 1259.3 -10.5334 1265.77 -14.1804C1315.7 -42.3144 1345.52 -58.7924 1345.82 -58.9587L1344.78 -60.4884L1344.78 -60.4829Z" fill="url(#paint20_linear_212_49)" fill-opacity="0.2"/>
<path style="mix-blend-mode:multiply" d="M1372.25 -4.74128C1371.95 -4.58054 1341.06 11.9307 1289.38 40.1035C1282.69 43.7505 1275.69 47.5915 1268.38 51.5988C1219.47 78.4247 1158.6 111.813 1086.86 144.514C993.021 187.269 907.953 212.832 826.783 222.62C746.233 232.314 653.162 227.68 533.892 208.026C511.145 204.274 488.188 200.272 465.985 196.398C386.576 182.547 311.575 169.467 239.46 165.98C157.902 162.067 77.8784 172.465 14.1446 195.267C-26.7151 209.911 -60.0536 226.433 -86.0925 241.636V243.765C-60.0093 228.456 -26.4214 211.734 14.8706 196.936C78.344 174.222 158.068 163.869 239.35 167.771C311.331 171.246 386.266 184.321 465.608 198.155C487.811 202.029 510.774 206.031 533.532 209.783C653.013 229.47 746.277 234.11 827.043 224.388C832.226 223.762 837.419 223.074 842.634 222.321C919.321 211.235 999.694 186.227 1087.75 146.11C1159.56 113.376 1220.46 79.9711 1269.41 53.123C1276.71 49.1157 1283.71 45.2747 1290.4 41.6333C1342.07 13.466 1372.96 -3.03972 1373.26 -3.206L1372.25 -4.74683V-4.74128Z" fill="url(#paint21_linear_212_49)" fill-opacity="0.2"/>
<path style="mix-blend-mode:multiply" d="M1401.09 57.1357C1400.78 57.2965 1368.79 73.7634 1315.29 101.859C1308.38 105.483 1301.15 109.308 1293.6 113.293C1243.02 140.019 1180.07 173.286 1106.1 205.743C1009.43 248.138 921.937 273.34 838.594 282.773C755.938 292.107 660.528 287.052 538.332 266.872C515.031 263.019 491.514 258.918 468.767 254.944C387.413 240.744 310.577 227.331 236.711 223.529C153.191 219.255 71.3159 229.299 6.16876 251.807C-30.4287 264.472 -61.1511 278.644 -86.0981 292.118V294.207C-61.0624 280.617 -30.1183 266.278 6.8782 253.475C71.776 231.061 153.357 221.057 236.6 225.313C310.333 229.11 387.109 242.512 468.396 256.701C491.142 260.669 514.665 264.776 537.982 268.629C660.384 288.842 755.988 293.897 838.843 284.547C846.026 283.732 853.243 282.801 860.493 281.753C937.551 270.613 1018.44 246.176 1106.97 207.35C1181.01 174.865 1244 141.582 1294.61 114.839C1302.15 110.854 1309.38 107.035 1316.28 103.411C1369.78 75.3209 1401.76 58.8539 1402.07 58.6932L1401.09 57.1357Z" fill="url(#paint22_linear_212_49)" fill-opacity="0.2"/>
<path style="mix-blend-mode:multiply" d="M1431.81 120.47C1431.49 120.631 1398.3 137.059 1342.81 165.071C1335.67 168.674 1328.2 172.471 1320.4 176.434C1267.99 203.055 1202.76 236.188 1126.35 268.396C1026.62 310.408 936.492 335.25 850.788 344.279C765.87 353.219 667.928 347.715 542.561 326.964C518.65 323.006 494.523 318.789 471.183 314.709C387.746 300.132 308.931 286.365 233.175 282.224C147.554 277.569 63.6783 287.224 -2.98755 309.427C-35.0956 320.135 -62.764 331.997 -86.0981 343.603V345.642C-62.6531 333.931 -34.7464 321.937 -2.30027 311.112C64.1217 288.997 147.703 279.375 233.059 284.015C308.681 288.149 387.43 301.906 470.807 316.472C494.146 320.546 518.284 324.763 542.2 328.726C667.767 349.511 765.892 355.015 851.015 346.058C860.481 345.06 869.987 343.869 879.564 342.483C956.933 331.298 1038.27 307.471 1127.18 270.014C1203.67 237.784 1268.93 204.634 1321.37 177.997C1329.17 174.039 1336.64 170.243 1343.78 166.64C1399.26 138.633 1432.43 122.211 1432.76 122.05L1431.81 120.482L1431.81 120.47Z" fill="url(#paint23_linear_212_49)" fill-opacity="0.2"/>
<path style="mix-blend-mode:multiply" d="M1465.22 180.713C1464.87 180.873 1430.3 197.329 1372.51 225.369C1365.09 228.972 1357.33 232.763 1349.22 236.72C1294.72 263.335 1226.88 296.463 1147.67 328.521C1044.42 370.29 951.263 394.816 862.887 403.507C775.381 412.075 674.545 406.1 545.542 384.701C520.945 380.621 496.114 376.276 472.104 372.08C386.255 357.071 305.173 342.893 227.256 338.393C139.223 333.332 53.0865 342.638 -15.2809 364.603C-41.8187 373.144 -65.4133 382.461 -86.0981 391.812V393.818C-65.2692 384.368 -41.464 374.929 -14.6158 366.294C53.5077 344.417 139.367 335.139 227.128 340.183C304.918 344.678 385.945 358.845 471.727 373.843C495.743 378.039 520.573 382.384 545.182 386.469C674.379 407.896 775.403 413.877 863.103 405.291C875.042 404.116 887.058 402.659 899.18 400.902C977.025 389.645 1058.98 366.366 1148.49 330.162C1227.76 298.076 1295.63 264.932 1350.17 238.3C1358.27 234.342 1366.03 230.551 1373.46 226.954C1431.23 198.92 1465.81 182.47 1466.14 182.303L1465.22 180.718V180.713Z" fill="url(#paint24_linear_212_49)" fill-opacity="0.2"/>
<path style="mix-blend-mode:multiply" d="M1405.24 278.982C1397.49 282.607 1389.37 286.42 1380.92 290.4C1323.89 317.22 1252.93 350.597 1170.36 382.761C1062.92 424.591 966.172 449 874.571 457.397C783.978 465.661 679.667 459.193 546.307 437.028C520.878 432.799 495.211 428.31 470.391 423.964C381.666 408.44 297.857 393.774 217.357 388.902C126.453 383.426 37.6394 392.455 -32.7123 414.337C-52.017 420.35 -69.8141 426.774 -86.0981 433.337V435.304C-69.6423 428.653 -51.6456 422.135 -32.0693 416.033C38.0329 394.228 126.57 385.227 217.224 390.692C297.596 395.559 381.344 410.213 470.008 425.727C494.834 430.072 520.507 434.562 545.947 438.796C679.495 460.988 783.978 467.468 874.765 459.187C889.303 457.857 903.974 456.122 918.795 453.977C997.543 442.593 1080.57 419.68 1171.14 384.413C1253.78 352.221 1324.78 318.827 1381.83 291.996C1390.29 288.016 1398.4 284.203 1406.15 280.578C1437.07 266.129 1461.64 254.733 1478.34 247.007V244.995C1461.63 252.721 1436.73 264.272 1405.24 278.988V278.982Z" fill="url(#paint25_linear_212_49)" fill-opacity="0.2"/>
<path style="mix-blend-mode:multiply" d="M1442.13 322.951C1433.95 326.648 1425.38 330.539 1416.46 334.596C1356.36 361.921 1281.56 395.924 1194.86 428.553C1082.31 470.893 981.154 495.463 885.611 503.672C791.255 511.742 682.704 504.747 543.99 481.651C517.536 477.245 490.832 472.567 465.015 468.05C372.753 451.893 285.613 436.64 201.954 431.375C107.542 425.461 15.4969 434.34 -57.2159 456.372C-67.2701 459.42 -76.8587 462.646 -86.0981 465.971V467.9C-76.6758 464.491 -66.871 461.188 -56.5896 458.068C15.8904 436.108 107.658 427.262 201.81 433.159C285.347 438.414 372.432 453.661 464.632 469.807C490.461 474.329 517.165 479.002 543.63 483.414C682.527 506.537 791.255 513.543 885.8 505.451C903.009 503.971 920.396 501.965 938 499.421C1018.34 487.803 1103.15 464.99 1195.62 430.205C1282.39 397.554 1357.22 363.528 1417.35 336.192C1426.28 332.135 1434.83 328.244 1443.02 324.547C1455.87 318.744 1467.66 313.424 1478.35 308.624V306.623C1467.44 311.534 1455.34 316.982 1442.13 322.946L1442.13 322.951Z" fill="url(#paint26_linear_212_49)" fill-opacity="0.2"/>
<path style="mix-blend-mode:multiply" d="M1457.23 367.325C1393.29 395.559 1313.71 430.698 1221.88 464.258C1102.98 507.69 996.374 532.776 895.976 540.929C796.98 548.943 683.181 541.389 537.833 517.157C510.103 512.529 482.119 507.629 455.055 502.885C358.426 485.958 267.157 469.967 179.595 464.292C82.8167 458.051 -11.2626 466.487 -86.0981 488.003V489.876C-11.4067 468.305 82.6615 459.836 179.451 466.076C266.89 471.741 358.104 487.72 454.672 504.642C481.742 509.386 509.726 514.286 537.467 518.914C682.992 543.179 796.969 550.739 896.148 542.708C916.04 541.089 936.165 538.811 956.589 535.857C1039.44 523.874 1127.08 500.806 1222.62 465.91C1314.51 432.328 1394.12 397.177 1458.09 368.927C1465.07 365.839 1471.78 362.885 1478.34 359.998V358.002C1471.5 361.012 1464.51 364.093 1457.21 367.314L1457.23 367.325Z" fill="url(#paint27_linear_212_49)" fill-opacity="0.2"/>
<path style="mix-blend-mode:multiply" d="M1252.35 489.2C1125.55 534.438 1012.2 560.461 905.77 568.736C801.043 576.85 680.753 568.697 527.213 543.068C497.904 538.174 468.324 532.992 439.718 527.976C337.691 510.095 241.323 493.202 148.956 487.094C65.2524 481.579 -16.3063 486.379 -86.0981 500.601V502.436C-16.4061 488.191 65.1249 483.375 148.812 488.884C241.062 494.986 337.375 511.869 439.342 529.738C467.947 534.754 497.533 539.936 526.853 544.831C680.576 570.487 801.032 578.651 905.941 570.52C928.5 568.763 951.374 566.214 974.614 562.849C1061.21 550.329 1152.97 526.573 1253.07 490.863C1338.72 460.29 1414.7 428.354 1478.34 401.018V399.034C1414.55 426.436 1338.31 458.511 1252.35 489.194V489.2Z" fill="url(#paint28_linear_212_49)" fill-opacity="0.2"/>
<path style="mix-blend-mode:multiply" d="M1454.74 439.777C1410.34 457.846 1351.2 481.452 1287.49 503.788C1221.65 526.867 1162.15 544.554 1105.6 557.861C1041.26 572.992 977.235 583.03 915.308 587.697C803.565 596.094 675.31 587.276 511.672 559.945C480.423 554.724 448.891 549.193 418.396 543.85C309.735 524.794 207.098 506.798 108.839 500.219C40.8098 495.679 -25.6731 497.536 -86.0925 505.334V507.141C-25.7452 499.326 40.7045 497.47 108.695 502.003C206.837 508.582 309.413 526.568 418.019 545.607C448.52 550.955 480.057 556.487 511.317 561.708C675.127 589.071 803.554 597.895 915.475 589.487C941.741 587.508 968.373 584.56 995.249 580.674C1031.87 575.381 1068.93 568.337 1106.1 559.596C1162.73 546.266 1222.3 528.558 1288.21 505.462C1351.97 483.109 1411.13 459.492 1455.56 441.412C1463.31 438.258 1470.87 435.16 1478.35 432.084V430.116C1470.61 433.298 1462.78 436.507 1454.74 439.777H1454.74Z" fill="url(#paint29_linear_212_49)" fill-opacity="0.2"/>
<path style="mix-blend-mode:multiply" d="M1328.83 509.68C1256.98 534.522 1192.21 553.532 1130.8 567.799C1061.12 583.972 991.907 594.68 925.086 599.613C804.79 608.47 666.83 598.904 490.921 569.506C457.288 563.88 423.357 557.928 390.539 552.175C273.83 531.706 163.594 512.368 58.2134 505.257C6.96141 501.809 -41.3752 501.421 -86.0925 503.982V505.778C-41.4306 503.212 6.85611 503.6 58.0693 507.042C163.333 514.147 273.514 533.468 390.163 553.932C422.98 559.69 456.923 565.643 490.566 571.263C666.653 600.689 804.779 610.266 925.252 601.398C954.444 599.242 984.092 595.988 1014.04 591.66C1052.75 586.062 1091.95 578.668 1131.3 569.534C1192.79 555.245 1257.63 536.218 1329.54 511.348C1383.83 492.57 1435.2 472.927 1478.35 455.9V453.944C1435.06 471.037 1383.42 490.791 1328.83 509.674L1328.83 509.68Z" fill="url(#paint30_linear_212_49)" fill-opacity="0.2"/>
<path style="mix-blend-mode:multiply" d="M1378.22 510.04C1298.94 537.138 1227.65 557.839 1160.29 573.33C1084.12 590.839 1008.61 602.401 935.844 607.7C805.267 617.172 655.629 606.741 464.926 574.86C428.439 568.758 391.631 562.301 356.037 556.054C229.645 533.878 110.264 512.933 -3.66368 505.218C-32.0471 503.3 -59.5326 502.286 -86.1036 502.086V503.877C-59.5825 504.076 -32.1469 505.09 -3.81333 507.003C109.992 514.707 229.323 535.647 355.655 557.811C391.254 564.058 428.063 570.515 464.56 576.617C655.44 608.526 805.239 618.968 935.999 609.479C968.467 607.118 1001.48 603.51 1034.85 598.682C1076.39 592.674 1118.49 584.781 1160.78 575.065C1228.21 559.557 1299.56 538.834 1378.91 511.714C1413.43 499.914 1446.95 487.781 1478.34 476.042V474.102C1446.75 485.919 1412.99 498.146 1378.21 510.04H1378.22Z" fill="url(#paint31_linear_212_49)" fill-opacity="0.2"/>
<path style="mix-blend-mode:multiply" d="M1437.85 509.962C1349.43 539.776 1270.18 562.517 1195.58 579.472C1111.55 598.56 1028.45 611.136 948.586 616.856C805.749 627.049 642.243 615.576 434.021 580.752C394.131 574.079 353.909 567.017 315.005 560.189C177.162 535.996 46.9564 513.144 -77.0361 504.719C-80.0845 504.514 -83.0664 504.375 -86.0981 504.187V505.983C-83.1163 506.166 -80.1842 506.304 -77.1857 506.509C46.6904 514.928 176.841 537.769 314.629 561.951C353.537 568.78 393.765 575.841 433.666 582.52C642.06 617.371 805.732 628.85 948.747 618.646C985.239 616.036 1022.4 611.99 1060.02 606.552C1104.85 600.073 1150.32 591.604 1196.07 581.212C1270.74 564.235 1350.06 541.483 1438.55 511.642C1451.97 507.119 1465.24 502.541 1478.35 497.957V496.034C1465.01 500.701 1451.51 505.357 1437.85 509.962H1437.85Z" fill="url(#paint32_linear_212_49)" fill-opacity="0.2"/>
<path style="mix-blend-mode:multiply" d="M1238.36 593.361C1144.94 614.174 1052.83 627.836 964.582 633.96C807.384 644.829 627.661 632.07 398.997 593.805C355.128 586.455 310.893 578.69 268.115 571.18C144.677 549.503 26.8369 528.818 -86.0981 516.891V518.692C26.6984 530.62 144.428 551.282 267.739 572.937C310.516 580.453 354.757 588.218 398.637 595.567C627.478 633.866 807.356 646.636 964.731 635.751C1006.77 632.835 1049.68 628.213 1093.19 621.916C1141.13 614.983 1189.81 606.032 1238.83 595.107C1313.05 578.557 1391.71 556.891 1478.34 529.14V527.239C1391.51 555.079 1312.7 576.795 1238.36 593.372V593.361Z" fill="url(#paint33_linear_212_49)" fill-opacity="0.2"/>
<path style="mix-blend-mode:multiply" d="M1290.47 624.433C1186 646.891 1083.35 661.518 985.355 667.903C811.607 679.188 613.289 664.771 361.241 622.532C312.811 614.412 263.997 605.832 216.786 597.535C112.264 579.167 11.3843 561.447 -86.0981 548.217V550.029C11.2568 563.248 112.009 580.951 216.409 599.297C263.62 607.594 312.439 616.174 360.881 624.294C613.101 666.562 811.579 680.989 985.499 669.693C1035.95 666.407 1087.63 660.936 1140.15 653.343C1189.76 646.171 1240.13 637.103 1290.92 626.179C1350.2 613.431 1412.2 597.806 1478.34 578.945V577.066C1412.02 595.994 1349.87 611.657 1290.46 624.438L1290.47 624.433Z" fill="url(#paint34_linear_212_49)" fill-opacity="0.2"/>
<path style="mix-blend-mode:multiply" d="M1353.74 684.171C1236.47 707.821 1121.68 723.002 1012.57 729.292C820.126 740.344 600.924 723.728 322.732 676.998C269.191 668.003 214.957 658.392 162.508 649.103C99.4444 637.929 34.2362 626.378 -29.2315 615.997C-48.7912 612.799 -67.6858 609.806 -86.0981 606.968V608.786C-67.7966 611.607 -49.024 614.578 -29.5863 617.76C33.8704 628.141 99.0731 639.692 162.125 650.86C214.574 660.149 268.814 669.76 322.366 678.755C600.724 725.512 820.087 742.14 1012.7 731.077C1076.79 727.38 1142.81 720.624 1210.17 710.886C1257.59 704.03 1305.67 695.694 1354.16 685.916C1394.23 677.83 1435.52 668.613 1478.34 658.181V656.325C1435.36 666.8 1393.94 676.056 1353.74 684.165V684.171Z" fill="url(#paint35_linear_212_49)" fill-opacity="0.2"/>
<path style="mix-blend-mode:multiply" d="M1429.8 785.161C1297.93 809.011 1169.45 823.909 1047.92 829.446C834.781 839.107 592.638 819.52 285.902 767.802C226.89 757.848 167.119 747.25 109.316 737.002C45.0609 725.612 -21.1948 713.873 -86.0925 703.076V704.9C-21.3222 715.68 44.806 727.391 108.933 738.765C166.742 749.013 226.524 759.616 285.541 769.565C592.438 821.31 834.725 840.908 1048.02 831.237C1135.23 827.263 1225.99 818.478 1319.02 805.026C1355.75 799.716 1392.84 793.675 1430.2 786.918C1446 784.058 1462.07 781.032 1478.35 777.856V776.022C1461.93 779.225 1445.74 782.279 1429.81 785.161H1429.8Z" fill="url(#paint36_linear_212_49)" fill-opacity="0.2"/>
</g>
<g filter="url(#filter0_f_212_49)">
<circle cx="608" cy="527" r="211" fill="#0358FC" fill-opacity="0.35"/>
</g>
<g filter="url(#filter1_f_212_49)">
<circle cx="895.5" cy="250.5" r="146.5" fill="#7D2EFF" fill-opacity="0.35"/>
</g>
<defs>
<filter id="filter0_f_212_49" x="97" y="16" width="1022" height="1022" filterUnits="userSpaceOnUse" color-interpolation-filters="sRGB">
<feFlood flood-opacity="0" result="BackgroundImageFix"/>
<feBlend mode="normal" in="SourceGraphic" in2="BackgroundImageFix" result="shape"/>
<feGaussianBlur stdDeviation="150" result="effect1_foregroundBlur_212_49"/>
</filter>
<filter id="filter1_f_212_49" x="449" y="-196" width="893" height="893" filterUnits="userSpaceOnUse" color-interpolation-filters="sRGB">
<feFlood flood-opacity="0" result="BackgroundImageFix"/>
<feBlend mode="normal" in="SourceGraphic" in2="BackgroundImageFix" result="shape"/>
<feGaussianBlur stdDeviation="150" result="effect1_foregroundBlur_212_49"/>
</filter>
<linearGradient id="paint0_linear_212_49" x1="696.123" y1="69.5012" x2="696.123" y2="872.512" gradientUnits="userSpaceOnUse">
<stop stop-color="white"/>
<stop offset="0.09" stop-color="#F9FBFF"/>
<stop offset="0.21" stop-color="#E8F3FF"/>
<stop offset="0.35" stop-color="#CDE4FF"/>
<stop offset="0.5" stop-color="#A7D0FF"/>
<stop offset="0.65" stop-color="#79B7FF"/>
<stop offset="0.79" stop-color="#B1D5FF"/>
<stop offset="0.93" stop-color="#E9F3FF"/>
<stop offset="1" stop-color="white"/>
</linearGradient>
<linearGradient id="paint1_linear_212_49" x1="-3.00132e-05" y1="69.5012" x2="0.554225" y2="872.512" gradientUnits="userSpaceOnUse">
<stop stop-color="white"/>
<stop offset="0.09" stop-color="#F9FBFF"/>
<stop offset="0.21" stop-color="#E8F3FF"/>
<stop offset="0.35" stop-color="#CDE4FF"/>
<stop offset="0.5" stop-color="#A7D0FF"/>
<stop offset="0.65" stop-color="#79B7FF"/>
<stop offset="0.79" stop-color="#B1D5FF"/>
<stop offset="0.93" stop-color="#E9F3FF"/>
<stop offset="1" stop-color="white"/>
</linearGradient>
<linearGradient id="paint2_linear_212_49" x1="-22.4308" y1="69.5012" x2="-22.4308" y2="872.512" gradientUnits="userSpaceOnUse">
<stop stop-color="white"/>
<stop offset="0.09" stop-color="#F9FBFF"/>
<stop offset="0.21" stop-color="#E8F3FF"/>
<stop offset="0.35" stop-color="#CDE4FF"/>
<stop offset="0.5" stop-color="#A7D0FF"/>
<stop offset="0.65" stop-color="#79B7FF"/>
<stop offset="0.79" stop-color="#B1D5FF"/>
<stop offset="0.93" stop-color="#E9F3FF"/>
<stop offset="1" stop-color="white"/>
</linearGradient>
<linearGradient id="paint3_linear_212_49" x1="7.47131" y1="69.5012" x2="7.47131" y2="872.512" gradientUnits="userSpaceOnUse">
<stop stop-color="white"/>
<stop offset="0.09" stop-color="#F9FBFF"/>
<stop offset="0.21" stop-color="#E8F3FF"/>
<stop offset="0.35" stop-color="#CDE4FF"/>
<stop offset="0.5" stop-color="#A7D0FF"/>
<stop offset="0.65" stop-color="#79B7FF"/>
<stop offset="0.79" stop-color="#B1D5FF"/>
<stop offset="0.93" stop-color="#E9F3FF"/>
<stop offset="1" stop-color="white"/>
</linearGradient>
<linearGradient id="paint4_linear_212_49" x1="39.6957" y1="69.5012" x2="39.6957" y2="872.512" gradientUnits="userSpaceOnUse">
<stop stop-color="white"/>
<stop offset="0.09" stop-color="#F9FBFF"/>
<stop offset="0.21" stop-color="#E8F3FF"/>
<stop offset="0.35" stop-color="#CDE4FF"/>
<stop offset="0.5" stop-color="#A7D0FF"/>
<stop offset="0.65" stop-color="#79B7FF"/>
<stop offset="0.79" stop-color="#B1D5FF"/>
<stop offset="0.93" stop-color="#E9F3FF"/>
<stop offset="1" stop-color="white"/>
</linearGradient>
<linearGradient id="paint5_linear_212_49" x1="73.9542" y1="69.5012" x2="73.9542" y2="872.512" gradientUnits="userSpaceOnUse">
<stop stop-color="white"/>
<stop offset="0.09" stop-color="#F9FBFF"/>
<stop offset="0.21" stop-color="#E8F3FF"/>
<stop offset="0.35" stop-color="#CDE4FF"/>
<stop offset="0.5" stop-color="#A7D0FF"/>
<stop offset="0.65" stop-color="#79B7FF"/>
<stop offset="0.79" stop-color="#B1D5FF"/>
<stop offset="0.93" stop-color="#E9F3FF"/>
<stop offset="1" stop-color="white"/>
</linearGradient>
<linearGradient id="paint6_linear_212_49" x1="109.792" y1="69.5011" x2="109.792" y2="872.512" gradientUnits="userSpaceOnUse">
<stop stop-color="white"/>
<stop offset="0.09" stop-color="#F9FBFF"/>
<stop offset="0.21" stop-color="#E8F3FF"/>
<stop offset="0.35" stop-color="#CDE4FF"/>
<stop offset="0.5" stop-color="#A7D0FF"/>
<stop offset="0.65" stop-color="#79B7FF"/>
<stop offset="0.79" stop-color="#B1D5FF"/>
<stop offset="0.93" stop-color="#E9F3FF"/>
<stop offset="1" stop-color="white"/>
</linearGradient>
<linearGradient id="paint7_linear_212_49" x1="146.672" y1="69.5012" x2="146.672" y2="872.512" gradientUnits="userSpaceOnUse">
<stop stop-color="white"/>
<stop offset="0.09" stop-color="#F9FBFF"/>
<stop offset="0.21" stop-color="#E8F3FF"/>
<stop offset="0.35" stop-color="#CDE4FF"/>
<stop offset="0.5" stop-color="#A7D0FF"/>
<stop offset="0.65" stop-color="#79B7FF"/>
<stop offset="0.79" stop-color="#B1D5FF"/>
<stop offset="0.93" stop-color="#E9F3FF"/>
<stop offset="1" stop-color="white"/>
</linearGradient>
<linearGradient id="paint8_linear_212_49" x1="240.924" y1="69.5012" x2="240.924" y2="872.418" gradientUnits="userSpaceOnUse">
<stop stop-color="white"/>
<stop offset="0.09" stop-color="#F9FBFF"/>
<stop offset="0.21" stop-color="#E8F3FF"/>
<stop offset="0.35" stop-color="#CDE4FF"/>
<stop offset="0.5" stop-color="#A7D0FF"/>
<stop offset="0.65" stop-color="#79B7FF"/>
<stop offset="0.79" stop-color="#B1D5FF"/>
<stop offset="0.93" stop-color="#E9F3FF"/>
<stop offset="1" stop-color="white"/>
</linearGradient>
<linearGradient id="paint9_linear_212_49" x1="399.618" y1="69.5012" x2="399.618" y2="872.512" gradientUnits="userSpaceOnUse">
<stop stop-color="white"/>
<stop offset="0.09" stop-color="#F9FBFF"/>
<stop offset="0.21" stop-color="#E8F3FF"/>
<stop offset="0.35" stop-color="#CDE4FF"/>
<stop offset="0.5" stop-color="#A7D0FF"/>
<stop offset="0.65" stop-color="#79B7FF"/>
<stop offset="0.79" stop-color="#B1D5FF"/>
<stop offset="0.93" stop-color="#E9F3FF"/>
<stop offset="1" stop-color="white"/>
</linearGradient>
<linearGradient id="paint10_linear_212_49" x1="559.05" y1="69.5012" x2="559.05" y2="872.512" gradientUnits="userSpaceOnUse">
<stop stop-color="white"/>
<stop offset="0.09" stop-color="#F9FBFF"/>
<stop offset="0.21" stop-color="#E8F3FF"/>
<stop offset="0.35" stop-color="#CDE4FF"/>
<stop offset="0.5" stop-color="#A7D0FF"/>
<stop offset="0.65" stop-color="#79B7FF"/>
<stop offset="0.79" stop-color="#B1D5FF"/>
<stop offset="0.93" stop-color="#E9F3FF"/>
<stop offset="1" stop-color="white"/>
</linearGradient>
<linearGradient id="paint11_linear_212_49" x1="705.273" y1="69.5012" x2="705.273" y2="872.512" gradientUnits="userSpaceOnUse">
<stop stop-color="white"/>
<stop offset="0.09" stop-color="#F9FBFF"/>
<stop offset="0.21" stop-color="#E8F3FF"/>
<stop offset="0.35" stop-color="#CDE4FF"/>
<stop offset="0.5" stop-color="#A7D0FF"/>
<stop offset="0.65" stop-color="#79B7FF"/>
<stop offset="0.79" stop-color="#B1D5FF"/>
<stop offset="0.93" stop-color="#E9F3FF"/>
<stop offset="1" stop-color="white"/>
</linearGradient>
<linearGradient id="paint12_linear_212_49" x1="842.557" y1="69.5012" x2="842.557" y2="872.512" gradientUnits="userSpaceOnUse">
<stop stop-color="white"/>
<stop offset="0.09" stop-color="#F9FBFF"/>
<stop offset="0.21" stop-color="#E8F3FF"/>
<stop offset="0.35" stop-color="#CDE4FF"/>
<stop offset="0.5" stop-color="#A7D0FF"/>
<stop offset="0.65" stop-color="#79B7FF"/>
<stop offset="0.79" stop-color="#B1D5FF"/>
<stop offset="0.93" stop-color="#E9F3FF"/>
<stop offset="1" stop-color="white"/>
</linearGradient>
<linearGradient id="paint13_linear_212_49" x1="997.105" y1="69.5012" x2="997.105" y2="872.512" gradientUnits="userSpaceOnUse">
<stop stop-color="white"/>
<stop offset="0.09" stop-color="#F9FBFF"/>
<stop offset="0.21" stop-color="#E8F3FF"/>
<stop offset="0.35" stop-color="#CDE4FF"/>
<stop offset="0.5" stop-color="#A7D0FF"/>
<stop offset="0.65" stop-color="#79B7FF"/>
<stop offset="0.79" stop-color="#B1D5FF"/>
<stop offset="0.93" stop-color="#E9F3FF"/>
<stop offset="1" stop-color="white"/>
</linearGradient>
<linearGradient id="paint14_linear_212_49" x1="1159.59" y1="69.5012" x2="1159.59" y2="872.512" gradientUnits="userSpaceOnUse">
<stop stop-color="white"/>
<stop offset="0.09" stop-color="#F9FBFF"/>
<stop offset="0.21" stop-color="#E8F3FF"/>
<stop offset="0.35" stop-color="#CDE4FF"/>
<stop offset="0.5" stop-color="#A7D0FF"/>
<stop offset="0.65" stop-color="#79B7FF"/>
<stop offset="0.79" stop-color="#B1D5FF"/>
<stop offset="0.93" stop-color="#E9F3FF"/>
<stop offset="1" stop-color="white"/>
</linearGradient>
<linearGradient id="paint15_linear_212_49" x1="1223.72" y1="69.5012" x2="1223.72" y2="872.512" gradientUnits="userSpaceOnUse">
<stop stop-color="white"/>
<stop offset="0.09" stop-color="#F9FBFF"/>
<stop offset="0.21" stop-color="#E8F3FF"/>
<stop offset="0.35" stop-color="#CDE4FF"/>
<stop offset="0.5" stop-color="#A7D0FF"/>
<stop offset="0.65" stop-color="#79B7FF"/>
<stop offset="0.79" stop-color="#B1D5FF"/>
<stop offset="0.93" stop-color="#E9F3FF"/>
<stop offset="1" stop-color="white"/>
</linearGradient>
<linearGradient id="paint16_linear_212_49" x1="1261.85" y1="69.5012" x2="1261.85" y2="872.512" gradientUnits="userSpaceOnUse">
<stop stop-color="white"/>
<stop offset="0.09" stop-color="#F9FBFF"/>
<stop offset="0.21" stop-color="#E8F3FF"/>
<stop offset="0.35" stop-color="#CDE4FF"/>
<stop offset="0.5" stop-color="#A7D0FF"/>
<stop offset="0.65" stop-color="#79B7FF"/>
<stop offset="0.79" stop-color="#B1D5FF"/>
<stop offset="0.93" stop-color="#E9F3FF"/>
<stop offset="1" stop-color="white"/>
</linearGradient>
<linearGradient id="paint17_linear_212_49" x1="1301.35" y1="69.5012" x2="1301.35" y2="872.512" gradientUnits="userSpaceOnUse">
<stop stop-color="white"/>
<stop offset="0.09" stop-color="#F9FBFF"/>
<stop offset="0.21" stop-color="#E8F3FF"/>
<stop offset="0.35" stop-color="#CDE4FF"/>
<stop offset="0.5" stop-color="#A7D0FF"/>
<stop offset="0.65" stop-color="#79B7FF"/>
<stop offset="0.79" stop-color="#B1D5FF"/>
<stop offset="0.93" stop-color="#E9F3FF"/>
<stop offset="1" stop-color="white"/>
</linearGradient>
<linearGradient id="paint18_linear_212_49" x1="1342.55" y1="69.5012" x2="1342.55" y2="872.512" gradientUnits="userSpaceOnUse">
<stop stop-color="white"/>
<stop offset="0.09" stop-color="#F9FBFF"/>
<stop offset="0.21" stop-color="#E8F3FF"/>
<stop offset="0.35" stop-color="#CDE4FF"/>
<stop offset="0.5" stop-color="#A7D0FF"/>
<stop offset="0.65" stop-color="#79B7FF"/>
<stop offset="0.79" stop-color="#B1D5FF"/>
<stop offset="0.93" stop-color="#E9F3FF"/>
<stop offset="1" stop-color="white"/>
</linearGradient>
<linearGradient id="paint19_linear_212_49" x1="616.692" y1="69.5012" x2="616.692" y2="872.512" gradientUnits="userSpaceOnUse">
<stop stop-color="white"/>
<stop offset="0.09" stop-color="#F9FBFF"/>
<stop offset="0.21" stop-color="#E8F3FF"/>
<stop offset="0.35" stop-color="#CDE4FF"/>
<stop offset="0.5" stop-color="#A7D0FF"/>
<stop offset="0.65" stop-color="#79B7FF"/>
<stop offset="0.79" stop-color="#B1D5FF"/>
<stop offset="0.93" stop-color="#E9F3FF"/>
<stop offset="1" stop-color="white"/>
</linearGradient>
<linearGradient id="paint20_linear_212_49" x1="629.861" y1="69.5011" x2="629.861" y2="872.512" gradientUnits="userSpaceOnUse">
<stop stop-color="white"/>
<stop offset="0.09" stop-color="#F9FBFF"/>
<stop offset="0.21" stop-color="#E8F3FF"/>
<stop offset="0.35" stop-color="#CDE4FF"/>
<stop offset="0.5" stop-color="#A7D0FF"/>
<stop offset="0.65" stop-color="#79B7FF"/>
<stop offset="0.79" stop-color="#B1D5FF"/>
<stop offset="0.93" stop-color="#E9F3FF"/>
<stop offset="1" stop-color="white"/>
</linearGradient>
<linearGradient id="paint21_linear_212_49" x1="643.585" y1="69.5012" x2="643.585" y2="872.512" gradientUnits="userSpaceOnUse">
<stop stop-color="white"/>
<stop offset="0.09" stop-color="#F9FBFF"/>
<stop offset="0.21" stop-color="#E8F3FF"/>
<stop offset="0.35" stop-color="#CDE4FF"/>
<stop offset="0.5" stop-color="#A7D0FF"/>
<stop offset="0.65" stop-color="#79B7FF"/>
<stop offset="0.79" stop-color="#B1D5FF"/>
<stop offset="0.93" stop-color="#E9F3FF"/>
<stop offset="1" stop-color="white"/>
</linearGradient>
<linearGradient id="paint22_linear_212_49" x1="657.99" y1="69.5012" x2="657.99" y2="872.512" gradientUnits="userSpaceOnUse">
<stop stop-color="white"/>
<stop offset="0.09" stop-color="#F9FBFF"/>
<stop offset="0.21" stop-color="#E8F3FF"/>
<stop offset="0.35" stop-color="#CDE4FF"/>
<stop offset="0.5" stop-color="#A7D0FF"/>
<stop offset="0.65" stop-color="#79B7FF"/>
<stop offset="0.79" stop-color="#B1D5FF"/>
<stop offset="0.93" stop-color="#E9F3FF"/>
<stop offset="1" stop-color="white"/>
</linearGradient>
<linearGradient id="paint23_linear_212_49" x1="673.332" y1="69.5011" x2="673.332" y2="872.512" gradientUnits="userSpaceOnUse">
<stop stop-color="white"/>
<stop offset="0.09" stop-color="#F9FBFF"/>
<stop offset="0.21" stop-color="#E8F3FF"/>
<stop offset="0.35" stop-color="#CDE4FF"/>
<stop offset="0.5" stop-color="#A7D0FF"/>
<stop offset="0.65" stop-color="#79B7FF"/>
<stop offset="0.79" stop-color="#B1D5FF"/>
<stop offset="0.93" stop-color="#E9F3FF"/>
<stop offset="1" stop-color="white"/>
</linearGradient>
<linearGradient id="paint24_linear_212_49" x1="690.02" y1="69.5012" x2="690.02" y2="872.512" gradientUnits="userSpaceOnUse">
<stop stop-color="white"/>
<stop offset="0.09" stop-color="#F9FBFF"/>
<stop offset="0.21" stop-color="#E8F3FF"/>
<stop offset="0.35" stop-color="#CDE4FF"/>
<stop offset="0.5" stop-color="#A7D0FF"/>
<stop offset="0.65" stop-color="#79B7FF"/>
<stop offset="0.79" stop-color="#B1D5FF"/>
<stop offset="0.93" stop-color="#E9F3FF"/>
<stop offset="1" stop-color="white"/>
</linearGradient>
<linearGradient id="paint25_linear_212_49" x1="-9.1824e-05" y1="69.5012" x2="0.554163" y2="872.512" gradientUnits="userSpaceOnUse">
<stop stop-color="white"/>
<stop offset="0.09" stop-color="#F9FBFF"/>
<stop offset="0.21" stop-color="#E8F3FF"/>
<stop offset="0.35" stop-color="#CDE4FF"/>
<stop offset="0.5" stop-color="#A7D0FF"/>
<stop offset="0.65" stop-color="#79B7FF"/>
<stop offset="0.79" stop-color="#B1D5FF"/>
<stop offset="0.93" stop-color="#E9F3FF"/>
<stop offset="1" stop-color="white"/>
</linearGradient>
<linearGradient id="paint26_linear_212_49" x1="-0.000117314" y1="69.5012" x2="0.554138" y2="872.512" gradientUnits="userSpaceOnUse">
<stop stop-color="white"/>
<stop offset="0.09" stop-color="#F9FBFF"/>
<stop offset="0.21" stop-color="#E8F3FF"/>
<stop offset="0.35" stop-color="#CDE4FF"/>
<stop offset="0.5" stop-color="#A7D0FF"/>
<stop offset="0.65" stop-color="#79B7FF"/>
<stop offset="0.79" stop-color="#B1D5FF"/>
<stop offset="0.93" stop-color="#E9F3FF"/>
<stop offset="1" stop-color="white"/>
</linearGradient>
<linearGradient id="paint27_linear_212_49" x1="-0.000119409" y1="69.5012" x2="0.554136" y2="872.512" gradientUnits="userSpaceOnUse">
<stop stop-color="white"/>
<stop offset="0.09" stop-color="#F9FBFF"/>
<stop offset="0.21" stop-color="#E8F3FF"/>
<stop offset="0.35" stop-color="#CDE4FF"/>
<stop offset="0.5" stop-color="#A7D0FF"/>
<stop offset="0.65" stop-color="#79B7FF"/>
<stop offset="0.79" stop-color="#B1D5FF"/>
<stop offset="0.93" stop-color="#E9F3FF"/>
<stop offset="1" stop-color="white"/>
</linearGradient>
<linearGradient id="paint28_linear_212_49" x1="-0.000108485" y1="69.5011" x2="0.554147" y2="872.512" gradientUnits="userSpaceOnUse">
<stop stop-color="white"/>
<stop offset="0.09" stop-color="#F9FBFF"/>
<stop offset="0.21" stop-color="#E8F3FF"/>
<stop offset="0.35" stop-color="#CDE4FF"/>
<stop offset="0.5" stop-color="#A7D0FF"/>
<stop offset="0.65" stop-color="#79B7FF"/>
<stop offset="0.79" stop-color="#B1D5FF"/>
<stop offset="0.93" stop-color="#E9F3FF"/>
<stop offset="1" stop-color="white"/>
</linearGradient>
<linearGradient id="paint29_linear_212_49" x1="-4.78497e-05" y1="69.5012" x2="0.554208" y2="872.512" gradientUnits="userSpaceOnUse">
<stop stop-color="white"/>
<stop offset="0.09" stop-color="#F9FBFF"/>
<stop offset="0.21" stop-color="#E8F3FF"/>
<stop offset="0.35" stop-color="#CDE4FF"/>
<stop offset="0.5" stop-color="#A7D0FF"/>
<stop offset="0.65" stop-color="#79B7FF"/>
<stop offset="0.79" stop-color="#B1D5FF"/>
<stop offset="0.93" stop-color="#E9F3FF"/>
<stop offset="1" stop-color="white"/>
</linearGradient>
<linearGradient id="paint30_linear_212_49" x1="-2.91106e-05" y1="69.5011" x2="0.554226" y2="872.512" gradientUnits="userSpaceOnUse">
<stop stop-color="white"/>
<stop offset="0.09" stop-color="#F9FBFF"/>
<stop offset="0.21" stop-color="#E8F3FF"/>
<stop offset="0.35" stop-color="#CDE4FF"/>
<stop offset="0.5" stop-color="#A7D0FF"/>
<stop offset="0.65" stop-color="#79B7FF"/>
<stop offset="0.79" stop-color="#B1D5FF"/>
<stop offset="0.93" stop-color="#E9F3FF"/>
<stop offset="1" stop-color="white"/>
</linearGradient>
<linearGradient id="paint31_linear_212_49" x1="-7.53651e-05" y1="69.5011" x2="0.55418" y2="872.512" gradientUnits="userSpaceOnUse">
<stop stop-color="white"/>
<stop offset="0.09" stop-color="#F9FBFF"/>
<stop offset="0.21" stop-color="#E8F3FF"/>
<stop offset="0.35" stop-color="#CDE4FF"/>
<stop offset="0.5" stop-color="#A7D0FF"/>
<stop offset="0.65" stop-color="#79B7FF"/>
<stop offset="0.79" stop-color="#B1D5FF"/>
<stop offset="0.93" stop-color="#E9F3FF"/>
<stop offset="1" stop-color="white"/>
</linearGradient>
<linearGradient id="paint32_linear_212_49" x1="-9.40387e-05" y1="69.5012" x2="0.554161" y2="872.512" gradientUnits="userSpaceOnUse">
<stop stop-color="white"/>
<stop offset="0.09" stop-color="#F9FBFF"/>
<stop offset="0.21" stop-color="#E8F3FF"/>
<stop offset="0.35" stop-color="#CDE4FF"/>
<stop offset="0.5" stop-color="#A7D0FF"/>
<stop offset="0.65" stop-color="#79B7FF"/>
<stop offset="0.79" stop-color="#B1D5FF"/>
<stop offset="0.93" stop-color="#E9F3FF"/>
<stop offset="1" stop-color="white"/>
</linearGradient>
<linearGradient id="paint33_linear_212_49" x1="-8.8406e-05" y1="69.5013" x2="0.554167" y2="872.512" gradientUnits="userSpaceOnUse">
<stop stop-color="white"/>
<stop offset="0.09" stop-color="#F9FBFF"/>
<stop offset="0.21" stop-color="#E8F3FF"/>
<stop offset="0.35" stop-color="#CDE4FF"/>
<stop offset="0.5" stop-color="#A7D0FF"/>
<stop offset="0.65" stop-color="#79B7FF"/>
<stop offset="0.79" stop-color="#B1D5FF"/>
<stop offset="0.93" stop-color="#E9F3FF"/>
<stop offset="1" stop-color="white"/>
</linearGradient>
<linearGradient id="paint34_linear_212_49" x1="-0.000124354" y1="69.501" x2="0.554131" y2="872.512" gradientUnits="userSpaceOnUse">
<stop stop-color="white"/>
<stop offset="0.09" stop-color="#F9FBFF"/>
<stop offset="0.21" stop-color="#E8F3FF"/>
<stop offset="0.35" stop-color="#CDE4FF"/>
<stop offset="0.5" stop-color="#A7D0FF"/>
<stop offset="0.65" stop-color="#79B7FF"/>
<stop offset="0.79" stop-color="#B1D5FF"/>
<stop offset="0.93" stop-color="#E9F3FF"/>
<stop offset="1" stop-color="white"/>
</linearGradient>
<linearGradient id="paint35_linear_212_49" x1="-8.76361e-05" y1="69.5011" x2="0.554168" y2="872.512" gradientUnits="userSpaceOnUse">
<stop stop-color="white"/>
<stop offset="0.09" stop-color="#F9FBFF"/>
<stop offset="0.21" stop-color="#E8F3FF"/>
<stop offset="0.35" stop-color="#CDE4FF"/>
<stop offset="0.5" stop-color="#A7D0FF"/>
<stop offset="0.65" stop-color="#79B7FF"/>
<stop offset="0.79" stop-color="#B1D5FF"/>
<stop offset="0.93" stop-color="#E9F3FF"/>
<stop offset="1" stop-color="white"/>
</linearGradient>
<linearGradient id="paint36_linear_212_49" x1="-2.18796e-05" y1="69.5013" x2="0.554233" y2="872.512" gradientUnits="userSpaceOnUse">
<stop stop-color="white"/>
<stop offset="0.09" stop-color="#F9FBFF"/>
<stop offset="0.21" stop-color="#E8F3FF"/>
<stop offset="0.35" stop-color="#CDE4FF"/>
<stop offset="0.5" stop-color="#A7D0FF"/>
<stop offset="0.65" stop-color="#79B7FF"/>
<stop offset="0.79" stop-color="#B1D5FF"/>
<stop offset="0.93" stop-color="#E9F3FF"/>
<stop offset="1" stop-color="white"/>
</linearGradient>
</defs>
</svg>
