<svg width="900" height="400" viewBox="0 0 900 400" fill="none" xmlns="http://www.w3.org/2000/svg">
<g clip-path="url(#clip0_5_11715)">
<rect width="900" height="400" fill="url(#paint0_linear_5_11715)"/>
<g opacity="0.08" clip-path="url(#clip1_5_11715)">
<mask id="mask0_5_11715" style="mask-type:alpha" maskUnits="userSpaceOnUse" x="-1405" y="-582" width="4160" height="2402">
<rect width="60" height="60" transform="matrix(0.866044 0.499967 -0.866044 0.499967 882.851 -41.0305)" stroke="white" stroke-width="1.5"/>
<rect width="60" height="60" transform="matrix(0.866044 0.499967 -0.866044 0.499967 934.813 -11.0325)" stroke="white" stroke-width="1.5"/>
<rect width="60" height="60" transform="matrix(0.866044 0.499967 -0.866044 0.499967 778.925 -41.0305)" stroke="white" stroke-width="1.5"/>
<rect width="60" height="60" transform="matrix(0.866044 0.499967 -0.866044 0.499967 830.888 -11.0325)" stroke="white" stroke-width="1.5"/>
<rect width="60" height="60" transform="matrix(0.866044 0.499967 -0.866044 0.499967 882.85 18.9655)" stroke="white" stroke-width="1.5"/>
<rect width="60" height="60" transform="matrix(0.866044 0.499967 -0.866044 0.499967 934.813 48.9636)" stroke="white" stroke-width="1.5"/>
<rect width="60" height="60" transform="matrix(0.866044 0.499967 -0.866044 0.499967 675 -41.0306)" stroke="white" stroke-width="1.5"/>
<rect width="60" height="60" transform="matrix(0.866044 0.499967 -0.866044 0.499967 726.963 -11.0326)" stroke="white" stroke-width="1.5"/>
<rect width="60" height="60" transform="matrix(0.866044 0.499967 -0.866044 0.499967 778.926 18.9655)" stroke="white" stroke-width="1.5"/>
<rect width="60" height="60" transform="matrix(0.866044 0.499967 -0.866044 0.499967 830.888 48.9635)" stroke="white" stroke-width="1.5"/>
<rect width="60" height="60" transform="matrix(0.866044 0.499967 -0.866044 0.499967 882.851 78.9616)" stroke="white" stroke-width="1.5"/>
<rect width="60" height="60" transform="matrix(0.866044 0.499967 -0.866044 0.499967 934.813 108.96)" stroke="white" stroke-width="1.5"/>
<rect width="60" height="60" transform="matrix(0.866044 0.499967 -0.866044 0.499967 571.075 -41.0306)" stroke="white" stroke-width="1.5"/>
<rect width="60" height="60" transform="matrix(0.866044 0.499967 -0.866044 0.499967 623.037 -11.0326)" stroke="white" stroke-width="1.5"/>
<rect width="60" height="60" transform="matrix(0.866044 0.499967 -0.866044 0.499967 675 18.9655)" stroke="white" stroke-width="1.5"/>
<rect width="60" height="60" transform="matrix(0.866044 0.499967 -0.866044 0.499967 726.963 48.9635)" stroke="white" stroke-width="1.5"/>
<rect width="60" height="60" transform="matrix(0.866044 0.499967 -0.866044 0.499967 778.925 78.9616)" stroke="white" stroke-width="1.5"/>
<rect width="60" height="60" transform="matrix(0.866044 0.499967 -0.866044 0.499967 830.888 108.96)" stroke="white" stroke-width="1.5"/>
<rect width="60" height="60" transform="matrix(0.866044 0.499967 -0.866044 0.499967 882.851 138.958)" stroke="white" stroke-width="1.5"/>
<rect width="60" height="60" transform="matrix(0.866044 0.499967 -0.866044 0.499967 934.813 168.956)" stroke="white" stroke-width="1.5"/>
<rect width="60" height="60" transform="matrix(0.866044 0.499967 -0.866044 0.499967 467.149 -41.0306)" stroke="white" stroke-width="1.5"/>
<rect width="60" height="60" transform="matrix(0.866044 0.499967 -0.866044 0.499967 519.112 -11.0326)" stroke="white" stroke-width="1.5"/>
<rect width="60" height="60" transform="matrix(0.866044 0.499967 -0.866044 0.499967 571.074 18.9655)" stroke="white" stroke-width="1.5"/>
<rect width="60" height="60" transform="matrix(0.866044 0.499967 -0.866044 0.499967 623.037 48.9636)" stroke="white" stroke-width="1.5"/>
<rect width="60" height="60" transform="matrix(0.866044 0.499967 -0.866044 0.499967 675 78.9616)" stroke="white" stroke-width="1.5"/>
<rect width="60" height="60" transform="matrix(0.866044 0.499967 -0.866044 0.499967 726.962 108.96)" stroke="white" stroke-width="1.5"/>
<rect width="60" height="60" transform="matrix(0.866044 0.499967 -0.866044 0.499967 778.925 138.958)" stroke="white" stroke-width="1.5"/>
<rect width="60" height="60" transform="matrix(0.866044 0.499967 -0.866044 0.499967 830.888 168.956)" stroke="white" stroke-width="1.5"/>
<rect width="60" height="60" transform="matrix(0.866044 0.499967 -0.866044 0.499967 882.85 198.954)" stroke="white" stroke-width="1.5"/>
<rect width="60" height="60" transform="matrix(0.866044 0.499967 -0.866044 0.499967 934.813 228.952)" stroke="white" stroke-width="1.5"/>
<rect width="60" height="60" transform="matrix(0.866044 0.499967 -0.866044 0.499967 363.224 -41.0305)" stroke="white" stroke-width="1.5"/>
<rect width="60" height="60" transform="matrix(0.866044 0.499967 -0.866044 0.499967 415.187 -11.0325)" stroke="white" stroke-width="1.5"/>
<rect width="60" height="60" transform="matrix(0.866044 0.499967 -0.866044 0.499967 467.15 18.9655)" stroke="white" stroke-width="1.5"/>
<rect width="60" height="60" transform="matrix(0.866044 0.499967 -0.866044 0.499967 519.112 48.9636)" stroke="white" stroke-width="1.5"/>
<rect width="60" height="60" transform="matrix(0.866044 0.499967 -0.866044 0.499967 571.075 78.9616)" stroke="white" stroke-width="1.5"/>
<rect width="60" height="60" transform="matrix(0.866044 0.499967 -0.866044 0.499967 623.038 108.96)" stroke="white" stroke-width="1.5"/>
<rect width="60" height="60" transform="matrix(0.866044 0.499967 -0.866044 0.499967 675 138.958)" stroke="white" stroke-width="1.5"/>
<rect width="60" height="60" transform="matrix(0.866044 0.499967 -0.866044 0.499967 726.963 168.956)" stroke="white" stroke-width="1.5"/>
<rect width="60" height="60" transform="matrix(0.866044 0.499967 -0.866044 0.499967 778.926 198.954)" stroke="white" stroke-width="1.5"/>
<rect width="60" height="60" transform="matrix(0.866044 0.499967 -0.866044 0.499967 830.888 228.952)" stroke="white" stroke-width="1.5"/>
<rect width="60" height="60" transform="matrix(0.866044 0.499967 -0.866044 0.499967 882.851 258.95)" stroke="white" stroke-width="1.5"/>
<rect width="60" height="60" transform="matrix(0.866044 0.499967 -0.866044 0.499967 934.813 288.948)" stroke="white" stroke-width="1.5"/>
<rect width="60" height="60" transform="matrix(0.866044 0.499967 -0.866044 0.499967 259.299 -41.0306)" stroke="white" stroke-width="1.5"/>
<rect width="60" height="60" transform="matrix(0.866044 0.499967 -0.866044 0.499967 311.261 -11.0326)" stroke="white" stroke-width="1.5"/>
<rect width="60" height="60" transform="matrix(0.866044 0.499967 -0.866044 0.499967 363.224 18.9655)" stroke="white" stroke-width="1.5"/>
<rect width="60" height="60" transform="matrix(0.866044 0.499967 -0.866044 0.499967 415.187 48.9636)" stroke="white" stroke-width="1.5"/>
<rect width="60" height="60" transform="matrix(0.866044 0.499967 -0.866044 0.499967 467.149 78.9616)" stroke="white" stroke-width="1.5"/>
<rect width="60" height="60" transform="matrix(0.866044 0.499967 -0.866044 0.499967 519.112 108.96)" stroke="white" stroke-width="1.5"/>
<rect width="60" height="60" transform="matrix(0.866044 0.499967 -0.866044 0.499967 571.075 138.958)" stroke="white" stroke-width="1.5"/>
<rect width="60" height="60" transform="matrix(0.866044 0.499967 -0.866044 0.499967 623.037 168.956)" stroke="white" stroke-width="1.5"/>
<rect width="60" height="60" transform="matrix(0.866044 0.499967 -0.866044 0.499967 675 198.954)" stroke="white" stroke-width="1.5"/>
<rect width="60" height="60" transform="matrix(0.866044 0.499967 -0.866044 0.499967 726.963 228.952)" stroke="white" stroke-width="1.5"/>
<rect width="60" height="60" transform="matrix(0.866044 0.499967 -0.866044 0.499967 778.925 258.95)" stroke="white" stroke-width="1.5"/>
<rect width="60" height="60" transform="matrix(0.866044 0.499967 -0.866044 0.499967 830.888 288.948)" stroke="white" stroke-width="1.5"/>
<rect width="60" height="60" transform="matrix(0.866044 0.499967 -0.866044 0.499967 882.851 318.946)" stroke="white" stroke-width="1.5"/>
<rect width="60" height="60" transform="matrix(0.866044 0.499967 -0.866044 0.499967 934.813 348.944)" stroke="white" stroke-width="1.5"/>
<rect width="60" height="60" transform="matrix(0.866044 0.499967 -0.866044 0.499967 155.373 -41.0306)" stroke="white" stroke-width="1.5"/>
<rect width="60" height="60" transform="matrix(0.866044 0.499967 -0.866044 0.499967 207.336 -11.0326)" stroke="white" stroke-width="1.5"/>
<rect width="60" height="60" transform="matrix(0.866044 0.499967 -0.866044 0.499967 259.299 18.9655)" stroke="white" stroke-width="1.5"/>
<rect width="60" height="60" transform="matrix(0.866044 0.499967 -0.866044 0.499967 311.261 48.9636)" stroke="white" stroke-width="1.5"/>
<rect width="60" height="60" transform="matrix(0.866044 0.499967 -0.866044 0.499967 363.224 78.9616)" stroke="white" stroke-width="1.5"/>
<rect width="60" height="60" transform="matrix(0.866044 0.499967 -0.866044 0.499967 415.187 108.96)" stroke="white" stroke-width="1.5"/>
<rect width="60" height="60" transform="matrix(0.866044 0.499967 -0.866044 0.499967 467.149 138.958)" stroke="white" stroke-width="1.5"/>
<rect width="60" height="60" transform="matrix(0.866044 0.499967 -0.866044 0.499967 519.112 168.956)" stroke="white" stroke-width="1.5"/>
<rect width="60" height="60" transform="matrix(0.866044 0.499967 -0.866044 0.499967 571.074 198.954)" stroke="white" stroke-width="1.5"/>
<rect width="60" height="60" transform="matrix(0.866044 0.499967 -0.866044 0.499967 623.037 228.952)" stroke="white" stroke-width="1.5"/>
<rect width="60" height="60" transform="matrix(0.866044 0.499967 -0.866044 0.499967 675 258.95)" stroke="white" stroke-width="1.5"/>
<rect width="60" height="60" transform="matrix(0.866044 0.499967 -0.866044 0.499967 726.962 288.948)" stroke="white" stroke-width="1.5"/>
<rect width="60" height="60" transform="matrix(0.866044 0.499967 -0.866044 0.499967 778.925 318.946)" stroke="white" stroke-width="1.5"/>
<rect width="60" height="60" transform="matrix(0.866044 0.499967 -0.866044 0.499967 830.888 348.944)" stroke="white" stroke-width="1.5"/>
<rect width="60" height="60" transform="matrix(0.866044 0.499967 -0.866044 0.499967 882.851 378.942)" stroke="white" stroke-width="1.5"/>
<rect width="60" height="60" transform="matrix(0.866044 0.499967 -0.866044 0.499967 51.4482 -41.0306)" stroke="white" stroke-width="1.5"/>
<rect width="60" height="60" transform="matrix(0.866044 0.499967 -0.866044 0.499967 103.411 -11.0326)" stroke="white" stroke-width="1.5"/>
<rect width="60" height="60" transform="matrix(0.866044 0.499967 -0.866044 0.499967 155.373 18.9655)" stroke="white" stroke-width="1.5"/>
<rect width="60" height="60" transform="matrix(0.866044 0.499967 -0.866044 0.499967 207.336 48.9636)" stroke="white" stroke-width="1.5"/>
<rect width="60" height="60" transform="matrix(0.866044 0.499967 -0.866044 0.499967 259.299 78.9616)" stroke="white" stroke-width="1.5"/>
<rect width="60" height="60" transform="matrix(0.866044 0.499967 -0.866044 0.499967 311.262 108.96)" stroke="white" stroke-width="1.5"/>
<rect width="60" height="60" transform="matrix(0.866044 0.499967 -0.866044 0.499967 363.224 138.958)" stroke="white" stroke-width="1.5"/>
<rect width="60" height="60" transform="matrix(0.866044 0.499967 -0.866044 0.499967 415.187 168.956)" stroke="white" stroke-width="1.5"/>
<rect width="60" height="60" transform="matrix(0.866044 0.499967 -0.866044 0.499967 467.15 198.954)" stroke="white" stroke-width="1.5"/>
<rect width="60" height="60" transform="matrix(0.866044 0.499967 -0.866044 0.499967 519.112 228.952)" stroke="white" stroke-width="1.5"/>
<rect width="60" height="60" transform="matrix(0.866044 0.499967 -0.866044 0.499967 571.075 258.95)" stroke="white" stroke-width="1.5"/>
<rect width="60" height="60" transform="matrix(0.866044 0.499967 -0.866044 0.499967 623.038 288.948)" stroke="white" stroke-width="1.5"/>
<rect width="60" height="60" transform="matrix(0.866044 0.499967 -0.866044 0.499967 675 318.946)" stroke="white" stroke-width="1.5"/>
<rect width="60" height="60" transform="matrix(0.866044 0.499967 -0.866044 0.499967 726.963 348.944)" stroke="white" stroke-width="1.5"/>
<rect width="60" height="60" transform="matrix(0.866044 0.499967 -0.866044 0.499967 778.926 378.942)" stroke="white" stroke-width="1.5"/>
<rect width="60" height="60" transform="matrix(0.866044 0.499967 -0.866044 0.499967 -52.4773 -41.0306)" stroke="white" stroke-width="1.5"/>
<rect width="60" height="60" transform="matrix(0.866044 0.499967 -0.866044 0.499967 -0.514404 -11.0325)" stroke="white" stroke-width="1.5"/>
<rect width="60" height="60" transform="matrix(0.866044 0.499967 -0.866044 0.499967 51.4482 18.9655)" stroke="white" stroke-width="1.5"/>
<rect width="60" height="60" transform="matrix(0.866044 0.499967 -0.866044 0.499967 103.411 48.9635)" stroke="white" stroke-width="1.5"/>
<rect width="60" height="60" transform="matrix(0.866044 0.499967 -0.866044 0.499967 155.374 78.9616)" stroke="white" stroke-width="1.5"/>
<rect width="60" height="60" transform="matrix(0.866044 0.499967 -0.866044 0.499967 207.336 108.96)" stroke="white" stroke-width="1.5"/>
<rect width="60" height="60" transform="matrix(0.866044 0.499967 -0.866044 0.499967 259.299 138.958)" stroke="white" stroke-width="1.5"/>
<rect width="60" height="60" transform="matrix(0.866044 0.499967 -0.866044 0.499967 311.261 168.956)" stroke="white" stroke-width="1.5"/>
<rect width="60" height="60" transform="matrix(0.866044 0.499967 -0.866044 0.499967 363.224 198.954)" stroke="white" stroke-width="1.5"/>
<rect width="60" height="60" transform="matrix(0.866044 0.499967 -0.866044 0.499967 415.187 228.952)" stroke="white" stroke-width="1.5"/>
<rect width="60" height="60" transform="matrix(0.866044 0.499967 -0.866044 0.499967 467.149 258.95)" stroke="white" stroke-width="1.5"/>
<rect width="60" height="60" transform="matrix(0.866044 0.499967 -0.866044 0.499967 519.112 288.948)" stroke="white" stroke-width="1.5"/>
<rect width="60" height="60" transform="matrix(0.866044 0.499967 -0.866044 0.499967 571.075 318.946)" stroke="white" stroke-width="1.5"/>
<rect width="60" height="60" transform="matrix(0.866044 0.499967 -0.866044 0.499967 623.037 348.944)" stroke="white" stroke-width="1.5"/>
<rect width="60" height="60" transform="matrix(0.866044 0.499967 -0.866044 0.499967 675 378.942)" stroke="white" stroke-width="1.5"/>
<rect width="60" height="60" transform="matrix(0.866044 0.499967 -0.866044 0.499967 -52.4773 18.9655)" stroke="white" stroke-width="1.5"/>
<rect width="60" height="60" transform="matrix(0.866044 0.499967 -0.866044 0.499967 -0.514404 48.9636)" stroke="white" stroke-width="1.5"/>
<rect width="60" height="60" transform="matrix(0.866044 0.499967 -0.866044 0.499967 51.448 78.9616)" stroke="white" stroke-width="1.5"/>
<rect width="60" height="60" transform="matrix(0.866044 0.499967 -0.866044 0.499967 103.411 108.96)" stroke="white" stroke-width="1.5"/>
<rect width="60" height="60" transform="matrix(0.866044 0.499967 -0.866044 0.499967 155.373 138.958)" stroke="white" stroke-width="1.5"/>
<rect width="60" height="60" transform="matrix(0.866044 0.499967 -0.866044 0.499967 207.336 168.956)" stroke="white" stroke-width="1.5"/>
<rect width="60" height="60" transform="matrix(0.866044 0.499967 -0.866044 0.499967 259.299 198.954)" stroke="white" stroke-width="1.5"/>
<rect width="60" height="60" transform="matrix(0.866044 0.499967 -0.866044 0.499967 311.261 228.952)" stroke="white" stroke-width="1.5"/>
<rect width="60" height="60" transform="matrix(0.866044 0.499967 -0.866044 0.499967 363.224 258.95)" stroke="white" stroke-width="1.5"/>
<rect width="60" height="60" transform="matrix(0.866044 0.499967 -0.866044 0.499967 415.187 288.948)" stroke="white" stroke-width="1.5"/>
<rect width="60" height="60" transform="matrix(0.866044 0.499967 -0.866044 0.499967 467.149 318.946)" stroke="white" stroke-width="1.5"/>
<rect width="60" height="60" transform="matrix(0.866044 0.499967 -0.866044 0.499967 519.112 348.944)" stroke="white" stroke-width="1.5"/>
<rect width="60" height="60" transform="matrix(0.866044 0.499967 -0.866044 0.499967 571.074 378.942)" stroke="white" stroke-width="1.5"/>
<rect width="60" height="60" transform="matrix(0.866044 0.499967 -0.866044 0.499967 -52.4773 78.9616)" stroke="white" stroke-width="1.5"/>
<rect width="60" height="60" transform="matrix(0.866044 0.499967 -0.866044 0.499967 -0.514893 108.96)" stroke="white" stroke-width="1.5"/>
<rect width="60" height="60" transform="matrix(0.866044 0.499967 -0.866044 0.499967 51.448 138.958)" stroke="white" stroke-width="1.5"/>
<rect width="60" height="60" transform="matrix(0.866044 0.499967 -0.866044 0.499967 103.411 168.956)" stroke="white" stroke-width="1.5"/>
<rect width="60" height="60" transform="matrix(0.866044 0.499967 -0.866044 0.499967 155.373 198.954)" stroke="white" stroke-width="1.5"/>
<rect width="60" height="60" transform="matrix(0.866044 0.499967 -0.866044 0.499967 207.336 228.952)" stroke="white" stroke-width="1.5"/>
<rect width="60" height="60" transform="matrix(0.866044 0.499967 -0.866044 0.499967 259.299 258.95)" stroke="white" stroke-width="1.5"/>
<rect width="60" height="60" transform="matrix(0.866044 0.499967 -0.866044 0.499967 311.261 288.948)" stroke="white" stroke-width="1.5"/>
<rect width="60" height="60" transform="matrix(0.866044 0.499967 -0.866044 0.499967 363.224 318.946)" stroke="white" stroke-width="1.5"/>
<rect width="60" height="60" transform="matrix(0.866044 0.499967 -0.866044 0.499967 415.187 348.944)" stroke="white" stroke-width="1.5"/>
<rect width="60" height="60" transform="matrix(0.866044 0.499967 -0.866044 0.499967 467.149 378.942)" stroke="white" stroke-width="1.5"/>
<rect width="60" height="60" transform="matrix(0.866044 0.499967 -0.866044 0.499967 -52.4773 138.958)" stroke="white" stroke-width="1.5"/>
<rect width="60" height="60" transform="matrix(0.866044 0.499967 -0.866044 0.499967 -0.514404 168.956)" stroke="white" stroke-width="1.5"/>
<rect width="60" height="60" transform="matrix(0.866044 0.499967 -0.866044 0.499967 51.4482 198.954)" stroke="white" stroke-width="1.5"/>
<rect width="60" height="60" transform="matrix(0.866044 0.499967 -0.866044 0.499967 103.411 228.952)" stroke="white" stroke-width="1.5"/>
<rect width="60" height="60" transform="matrix(0.866044 0.499967 -0.866044 0.499967 155.373 258.95)" stroke="white" stroke-width="1.5"/>
<rect width="60" height="60" transform="matrix(0.866044 0.499967 -0.866044 0.499967 207.336 288.948)" stroke="white" stroke-width="1.5"/>
<rect width="60" height="60" transform="matrix(0.866044 0.499967 -0.866044 0.499967 259.299 318.946)" stroke="white" stroke-width="1.5"/>
<rect width="60" height="60" transform="matrix(0.866044 0.499967 -0.866044 0.499967 311.261 348.944)" stroke="white" stroke-width="1.5"/>
<rect width="60" height="60" transform="matrix(0.866044 0.499967 -0.866044 0.499967 363.224 378.942)" stroke="white" stroke-width="1.5"/>
<rect width="60" height="60" transform="matrix(0.866044 0.499967 -0.866044 0.499967 -52.4773 198.954)" stroke="white" stroke-width="1.5"/>
<rect width="60" height="60" transform="matrix(0.866044 0.499967 -0.866044 0.499967 -0.514404 228.952)" stroke="white" stroke-width="1.5"/>
<rect width="60" height="60" transform="matrix(0.866044 0.499967 -0.866044 0.499967 51.4482 258.95)" stroke="white" stroke-width="1.5"/>
<rect width="60" height="60" transform="matrix(0.866044 0.499967 -0.866044 0.499967 103.411 288.948)" stroke="white" stroke-width="1.5"/>
<rect width="60" height="60" transform="matrix(0.866044 0.499967 -0.866044 0.499967 155.373 318.946)" stroke="white" stroke-width="1.5"/>
<rect width="60" height="60" transform="matrix(0.866044 0.499967 -0.866044 0.499967 207.336 348.944)" stroke="white" stroke-width="1.5"/>
<rect width="60" height="60" transform="matrix(0.866044 0.499967 -0.866044 0.499967 259.299 378.942)" stroke="white" stroke-width="1.5"/>
<rect width="60" height="60" transform="matrix(0.866044 0.499967 -0.866044 0.499967 -52.4773 258.95)" stroke="white" stroke-width="1.5"/>
<rect width="60" height="60" transform="matrix(0.866044 0.499967 -0.866044 0.499967 -0.514404 288.948)" stroke="white" stroke-width="1.5"/>
<rect width="60" height="60" transform="matrix(0.866044 0.499967 -0.866044 0.499967 51.448 318.946)" stroke="white" stroke-width="1.5"/>
<rect width="60" height="60" transform="matrix(0.866044 0.499967 -0.866044 0.499967 103.411 348.944)" stroke="white" stroke-width="1.5"/>
<rect width="60" height="60" transform="matrix(0.866044 0.499967 -0.866044 0.499967 155.373 378.942)" stroke="white" stroke-width="1.5"/>
<rect width="60" height="60" transform="matrix(0.866044 0.499967 -0.866044 0.499967 -52.4771 318.946)" stroke="white" stroke-width="1.5"/>
<rect width="60" height="60" transform="matrix(0.866044 0.499967 -0.866044 0.499967 -0.514648 348.944)" stroke="white" stroke-width="1.5"/>
<rect width="60" height="60" transform="matrix(0.866044 0.499967 -0.866044 0.499967 51.4482 378.942)" stroke="white" stroke-width="1.5"/>
<rect width="60" height="60" transform="matrix(0.866044 0.499967 -0.866044 0.499967 -52.4773 378.942)" stroke="white" stroke-width="1.5"/>
</mask>
<g mask="url(#mask0_5_11715)">
<circle cx="675" cy="619" r="768" fill="url(#paint1_radial_5_11715)"/>
</g>
</g>
</g>
<defs>
<linearGradient id="paint0_linear_5_11715" x1="-1.3411e-05" y1="400" x2="510.585" y2="-288.702" gradientUnits="userSpaceOnUse">
<stop stop-color="#09090B"/>
<stop offset="1" stop-color="#1A1C21"/>
</linearGradient>
<radialGradient id="paint1_radial_5_11715" cx="0" cy="0" r="1" gradientUnits="userSpaceOnUse" gradientTransform="translate(675 619) rotate(90) scale(768)">
<stop stop-color="white"/>
<stop offset="1" stop-color="white" stop-opacity="0"/>
</radialGradient>
<clipPath id="clip0_5_11715">
<rect width="900" height="400" fill="white"/>
</clipPath>
<clipPath id="clip1_5_11715">
<rect width="1536" height="1536" fill="white" transform="translate(-93 -149)"/>
</clipPath>
</defs>
</svg>
