<svg width="35" height="35" viewBox="0 0 35 35" fill="none" xmlns="http://www.w3.org/2000/svg">
<rect x="1.5" y="1.5" width="31" height="31" rx="5.5" fill="#1E1E1E"/>
<rect x="1.5" y="1.5" width="31" height="31" rx="5.5" fill="black"/>
<rect x="1.5" y="1.5" width="31" height="31" rx="5.5" stroke="black"/>
<path d="M22.927 6.01668C22.618 6.03347 22.0807 6.06705 21.7348 6.09728C21.3855 6.12414 20.8818 6.16444 20.6131 6.18459C20.3445 6.20138 19.9381 6.23161 19.7064 6.2484C19.3202 6.27862 18.9038 6.30885 17.6276 6.38609C17.359 6.40288 16.9224 6.44989 16.6537 6.48684C16.3851 6.52378 16.0593 6.56743 15.9283 6.58423C15.8007 6.60102 14.9612 6.61109 14.0645 6.60773C12.5499 6.59766 12.382 6.59094 11.6801 6.51034C10.1958 6.33571 9.64164 6.2887 8.40244 6.23161C7.92556 6.2081 7.50242 6.24504 6.96174 6.35586C6.57218 6.43646 6.458 6.50363 6.16583 6.82266C5.73261 7.29618 4.95685 8.5018 4.6949 9.10629C4.5337 9.48242 4.37587 9.78802 4.16765 10.1339C3.99302 10.4295 3.98631 10.4563 4.00981 10.5906C4.02325 10.6712 4.03668 11.2791 4.04004 11.944C4.0434 13.3612 4.1072 14.2814 4.28183 15.4031C4.3087 15.5878 4.34228 15.8967 4.35907 16.0915C4.37251 16.2863 4.40273 16.565 4.42288 16.7128C4.43967 16.8606 4.46654 17.1091 4.47997 17.2669C4.55385 18.2072 4.82587 19.1811 5.1617 19.6849C5.26581 19.8393 5.35648 19.9871 5.36656 20.0106C5.41021 20.1147 5.73933 20.4908 5.93746 20.6621C6.37404 21.0382 7.09943 21.5118 7.40167 21.6159C7.7375 21.7334 7.78116 21.8207 7.78452 22.3782C7.78452 22.7711 7.86847 23.3924 7.97258 23.782C8.01624 23.9566 8.13713 24.2689 8.23788 24.4738C8.53005 25.0682 9.04387 25.5719 9.56104 25.7667C9.94053 25.9111 10.2898 25.9984 10.6693 26.0488C10.8842 26.079 11.2771 26.1327 11.5458 26.1697C11.8144 26.2066 12.0798 26.2402 12.1402 26.2503C12.3014 26.2704 12.6574 26.21 12.8757 26.1294C13.1578 26.0219 13.3324 25.8439 13.46 25.535C13.5809 25.2462 13.6649 25.0917 13.7018 25.0917C13.7354 25.0917 13.8764 25.3805 13.947 25.5954C14.0276 25.8439 14.3936 26.6365 14.4608 26.7171C14.5615 26.8246 14.7563 26.9018 15.0787 26.9589C15.3373 27.0059 15.4884 27.0093 15.9619 26.9858C16.2776 26.969 17.0937 26.9589 17.7821 26.9656L19.0314 26.9757L19.3101 26.8917C19.7668 26.7507 20.2605 26.3813 20.5292 25.9716C20.64 25.807 20.7038 25.7969 20.9993 25.8977C21.1068 25.9346 21.2747 25.9648 21.3721 25.9648C21.624 25.9648 21.671 25.8943 21.7012 25.4812C21.7113 25.3066 21.7314 25.1152 21.7415 25.0615L21.7617 24.9574L21.8523 25.0212C22.2385 25.2932 22.8262 25.4812 23.2124 25.451C23.6154 25.4242 24.1662 25.1723 24.727 24.7592C24.8949 24.635 25.1434 24.4704 25.2811 24.3864C25.889 24.0305 26.6278 23.4428 26.6883 23.2715C26.7151 23.1976 26.7319 22.62 26.7453 21.5487C26.7554 20.6621 26.7789 19.8595 26.7957 19.7688C26.8259 19.6009 26.9334 19.4363 27.464 18.7445C27.558 18.6236 27.726 18.3986 27.8435 18.2442C27.9577 18.0897 28.0987 17.8983 28.1592 17.8244C28.2767 17.6766 28.5756 17.2266 28.7569 16.9311C28.8208 16.8303 28.9383 16.6322 29.0256 16.4945C29.1096 16.3568 29.1969 16.1822 29.2204 16.1083C29.2708 15.937 29.2674 13.6601 29.2137 12.8844C29.1096 11.4201 28.8611 9.8619 28.626 9.18017C28.5823 9.05592 28.4916 8.79733 28.4278 8.60255C28.2935 8.21635 27.8334 7.28611 27.6286 6.99058C27.4942 6.79916 27.323 6.65475 26.9939 6.44654C26.6916 6.25847 26.2819 6.13086 25.7177 6.05026C25.3886 6.00324 23.6356 5.98309 22.927 6.01668ZM10.0614 11.2388C10.2596 11.2657 10.5215 11.3194 10.639 11.3563C10.9715 11.4537 11.5491 11.6519 11.67 11.709C11.7271 11.7358 11.7909 11.7593 11.8144 11.7593C11.8346 11.7593 11.9689 11.803 12.11 11.8567C12.4424 11.9776 12.5466 12.0146 12.8723 12.1287C13.0201 12.1791 13.1712 12.2362 13.2081 12.2564C13.2451 12.2765 13.4197 12.3504 13.5943 12.4142C13.769 12.4814 14.0108 12.5821 14.1317 12.6392C14.4675 12.797 14.9813 13.0422 15.0619 13.0825C15.1929 13.1497 15.438 13.3142 15.8444 13.6165C16.2877 13.9422 16.2944 13.9556 16.3481 14.4157C16.3616 14.5366 16.3918 14.6676 16.4119 14.7113C16.4992 14.8725 16.7175 15.6717 16.7175 15.8296C16.7175 16.0378 16.6672 16.1318 16.4422 16.3501C16.1097 16.6725 15.6664 16.8572 14.8537 17.0184L14.3835 17.1124L12.5029 17.1259C10.2092 17.1393 9.87336 17.1158 9.06066 16.8572C8.65767 16.7329 8.4293 16.5818 8.23788 16.3266C8.07669 16.1049 8.01624 15.9337 7.93228 15.4534C7.86176 15.0437 7.88191 13.5627 7.96922 13.0858C8.13378 12.159 8.45953 11.4772 8.80207 11.3395C8.98342 11.2657 9.33604 11.1951 9.53754 11.1918C9.62485 11.1884 9.85993 11.2119 10.0614 11.2388ZM25.5632 11.4537C25.7714 11.4772 25.805 11.4907 25.9058 11.5981C26.1039 11.8164 26.3121 12.6023 26.4901 13.7944C26.5573 14.2445 26.5606 14.3385 26.5271 14.6441C26.4868 15.0135 26.2853 15.6751 26.1778 15.7926C26.1039 15.8732 25.8319 15.9505 25.5129 15.9874C25.2375 16.0143 24.0923 15.9807 23.518 15.9269C22.5979 15.8396 22.3494 15.8228 21.9564 15.8228C21.7079 15.8228 21.4258 15.843 21.268 15.8766C21.0866 15.9102 20.9187 15.9202 20.7508 15.9068C20.4654 15.8833 19.9247 15.7187 19.7971 15.6213C19.6963 15.5441 19.3907 14.9195 19.3135 14.6374C19.2631 14.4661 19.2631 14.3821 19.3 13.9321C19.4042 12.6157 19.4176 12.5519 19.5754 12.4108C19.7299 12.2698 19.9952 12.1623 20.4385 12.0616C20.8113 11.9743 20.9825 11.9541 21.446 11.9407C21.7549 11.934 22.1445 11.9105 22.3091 11.8903C22.6113 11.8534 23.8371 11.6216 24.0889 11.5511C24.4684 11.447 25.1166 11.4034 25.5632 11.4537ZM18.081 17.8378C18.4974 18.083 18.7359 18.2945 18.8366 18.496C18.9038 18.6371 18.9071 18.6841 18.8903 19.0166C18.8702 19.433 18.8232 19.564 18.6956 19.5774C18.6452 19.5841 18.4504 19.5505 18.259 19.5035C18.0676 19.4599 17.8258 19.4128 17.725 19.3994C17.6243 19.386 17.4597 19.339 17.3623 19.2886L17.181 19.2013L17.2045 19.0669C17.2146 18.9931 17.2918 18.6975 17.3724 18.4121C17.4564 18.1233 17.5235 17.8647 17.5235 17.8311C17.5235 17.7606 17.6377 17.6363 17.7015 17.6363C17.725 17.6363 17.8963 17.727 18.081 17.8378Z" fill="white"/>
</svg>
